<?xml version="1.0" encoding="UTF-8"?>
<svg width="274px" height="51px" viewBox="0 0 274 51" version="1.1" xmlns="http://www.w3.org/2000/svg" xmlns:xlink="http://www.w3.org/1999/xlink">
    <!-- Generator: Sketch 51.3 (57544) - http://www.bohemiancoding.com/sketch -->
    <title>ClinGen_NavbarLogo</title>
    <desc>Created with Sketch.</desc>
    <defs></defs>
    <g id="Page-1" stroke="none" stroke-width="1" fill="none" fill-rule="evenodd">
        <g id="ClinGen_NavbarLogo" fill-rule="nonzero">
            <g id="Logo-Text" transform="translate(142.000000, 2.400000)" fill="#2B3990">
                <path d="M0.5,15.5 C0.5,13.4 0.8,11.4 1.4,9.6 C2,7.7 2.9,6.1 4.1,4.8 C5.3,3.4 6.7,2.4 8.4,1.6 C10.1,0.8 12,0.4 14.2,0.4 C15.9,0.4 17.4,0.6 18.6,1.1 C19.8,1.5 20.9,2.1 21.7,2.8 C22.5,3.5 23.2,4.2 23.8,5 C24.3,5.8 24.7,6.5 25,7.2 C25.3,7.9 25.5,8.5 25.6,9 C25.7,9.5 25.8,9.8 25.8,9.8 L24,9.8 C23.8,8.6 23.4,7.5 22.8,6.5 C22.2,5.5 21.5,4.7 20.6,4 C19.7,3.3 18.7,2.8 17.6,2.5 C16.5,2.1 15.4,2 14.2,2 C12.3,2 10.6,2.4 9.2,3.1 C7.7,3.8 6.5,4.8 5.4,6 C4.4,7.2 3.6,8.7 3.1,10.3 C2.6,11.9 2.3,13.7 2.3,15.6 C2.3,17.5 2.6,19.2 3.1,20.9 C3.6,22.5 4.4,24 5.4,25.2 C6.4,26.4 7.7,27.4 9.2,28.1 C10.7,28.8 12.4,29.2 14.2,29.2 C15.6,29.2 16.9,28.9 18.1,28.3 C19.3,27.7 20.4,26.9 21.3,26 C22.2,25.1 22.9,23.9 23.5,22.7 C24.1,21.4 24.4,20.1 24.4,18.8 L26.2,18.8 C26,20.5 25.6,22.1 24.9,23.6 C24.2,25.1 23.3,26.3 22.3,27.4 C21.2,28.5 20,29.3 18.6,29.9 C17.2,30.5 15.7,30.8 14.1,30.8 C11.9,30.8 10,30.4 8.3,29.6 C6.6,28.8 5.2,27.7 4,26.4 C2.8,25 1.9,23.4 1.3,21.6 C0.8,19.6 0.5,17.6 0.5,15.5 Z" id="Shape"></path>
                <polygon id="Shape" points="31.6 1 31.6 30 30.1 30 30.1 1"></polygon>
                <path d="M36.9,5.2 L36.9,1 L38.4,1 L38.4,5.2 L36.9,5.2 Z M36.9,30 L36.9,9.1 L38.4,9.1 L38.4,30 L36.9,30 Z" id="Shape"></path>
                <path d="M43.3,9.1 L44.8,9.1 L44.8,13.6 L44.9,13.6 C45.2,12.8 45.6,12.1 46.1,11.5 C46.6,10.9 47.2,10.4 47.8,9.9 C48.4,9.4 49.2,9.1 50,8.9 C50.8,8.7 51.6,8.6 52.4,8.6 C53.6,8.6 54.6,8.7 55.5,9 C56.3,9.3 57,9.7 57.6,10.2 C58.1,10.7 58.6,11.2 58.9,11.8 C59.2,12.4 59.4,13 59.6,13.6 C59.7,14.2 59.8,14.8 59.8,15.4 C59.8,16 59.8,16.5 59.8,16.9 L59.8,30 L58.3,30 L58.3,16.8 C58.3,16.3 58.3,15.6 58.2,14.9 C58.1,14.1 57.9,13.4 57.5,12.7 C57.1,12 56.5,11.4 55.7,10.9 C54.9,10.4 53.8,10.1 52.4,10.1 C51.2,10.1 50.2,10.3 49.3,10.7 C48.4,11.1 47.6,11.7 47,12.5 C46.4,13.3 45.9,14.2 45.5,15.3 C45.2,16.4 45,17.5 45,18.8 L45,30 L43.5,30 L43.5,9.1 L43.3,9.1 Z" id="Shape"></path>
                <path d="M63.4,15.7 C63.4,13.6 63.7,11.7 64.3,9.8 C64.9,7.9 65.8,6.3 66.9,4.9 C68.1,3.5 69.5,2.4 71.2,1.6 C72.9,0.8 74.8,0.4 77,0.4 C78.5,0.4 79.9,0.6 81.2,1 C82.5,1.4 83.7,2.1 84.8,2.9 C85.9,3.7 86.8,4.8 87.5,5.9 C88.2,7.1 88.7,8.4 89,10 L87.3,10 C86.6,7.5 85.4,5.5 83.7,4 C82,2.6 79.7,1.9 77.1,1.9 C75.2,1.9 73.5,2.3 72,3 C70.5,3.8 69.3,4.8 68.3,6 C67.3,7.3 66.6,8.7 66,10.4 C65.5,12.1 65.2,13.8 65.2,15.6 C65.2,17.4 65.4,19.2 65.9,20.8 C66.4,22.4 67.1,23.9 68.1,25.1 C69.1,26.3 70.3,27.3 71.8,28 C73.3,28.7 75,29.1 77,29.1 C78.7,29.1 80.3,28.8 81.6,28.2 C83,27.6 84.1,26.8 85.1,25.8 C86.1,24.8 86.8,23.5 87.3,22.1 C87.8,20.7 88,19 87.9,17.3 L77.4,17.3 L77.4,15.8 L89.5,15.8 L89.5,30 L88,30 L88,23.8 L87.9,23.8 C87.5,24.9 87,25.8 86.3,26.7 C85.6,27.6 84.8,28.3 83.8,28.8 C82.8,29.4 81.8,29.8 80.6,30.2 C79.4,30.5 78.2,30.7 76.9,30.7 C74.7,30.7 72.8,30.3 71.1,29.5 C69.4,28.7 68,27.6 66.8,26.3 C65.6,24.9 64.8,23.4 64.2,21.5 C63.7,19.7 63.4,17.7 63.4,15.7 Z" id="Shape"></path>
                <path d="M94.7,19.8 L94.7,20 C94.7,21.2 94.9,22.4 95.2,23.5 C95.5,24.6 96,25.6 96.6,26.4 C97.2,27.2 98,27.9 99,28.4 C100,28.9 101.1,29.1 102.3,29.1 C104.4,29.1 106,28.6 107.2,27.5 C108.4,26.4 109.2,24.9 109.7,22.9 L111.2,22.9 C110.7,25.3 109.8,27.2 108.2,28.5 C106.7,29.8 104.7,30.4 102.2,30.4 C100.7,30.4 99.3,30.1 98.2,29.6 C97.1,29 96.1,28.3 95.3,27.3 C94.5,26.3 94,25.2 93.6,23.9 C93.2,22.6 93,21.2 93,19.7 C93,18.2 93.2,16.8 93.6,15.5 C94,14.2 94.6,13 95.4,12 C96.2,11 97.2,10.2 98.3,9.6 C99.5,9 100.8,8.7 102.4,8.7 C103.9,8.7 105.1,9 106.3,9.5 C107.4,10 108.4,10.8 109.1,11.7 C109.9,12.6 110.4,13.7 110.8,14.9 C111.2,16.1 111.4,17.4 111.4,18.9 C111.4,19 111.4,19.2 111.4,19.4 C111.4,19.6 111.4,19.7 111.4,19.8 L94.7,19.8 Z M109.9,18.4 C109.8,17.3 109.7,16.2 109.3,15.2 C109,14.2 108.5,13.3 107.9,12.5 C107.3,11.7 106.5,11.1 105.6,10.7 C104.7,10.2 103.7,10 102.5,10 C101.3,10 100.2,10.2 99.2,10.7 C98.3,11.2 97.5,11.8 96.8,12.6 C96.2,13.4 95.7,14.3 95.3,15.3 C94.9,16.3 94.7,17.4 94.7,18.5 L109.9,18.5 L109.9,18.4 Z" id="Shape"></path>
                <path d="M115,9.1 L116.5,9.1 L116.5,13.6 L116.6,13.6 C116.9,12.8 117.3,12.1 117.8,11.5 C118.3,10.9 118.9,10.4 119.5,9.9 C120.2,9.5 120.9,9.1 121.7,8.9 C122.5,8.7 123.3,8.6 124.1,8.6 C125.3,8.6 126.3,8.7 127.2,9 C128,9.3 128.7,9.7 129.3,10.2 C129.8,10.7 130.3,11.2 130.6,11.8 C130.9,12.4 131.1,13 131.3,13.6 C131.4,14.2 131.5,14.8 131.5,15.4 C131.5,16 131.5,16.5 131.5,16.9 L131.5,30 L130,30 L130,16.8 C130,16.3 130,15.6 129.9,14.9 C129.8,14.1 129.6,13.4 129.2,12.7 C128.8,12 128.2,11.4 127.4,10.9 C126.6,10.4 125.5,10.1 124.1,10.1 C122.9,10.1 121.9,10.3 121,10.7 C120.1,11.1 119.3,11.7 118.7,12.5 C118.1,13.3 117.6,14.2 117.2,15.3 C116.9,16.4 116.7,17.5 116.7,18.8 L116.7,30 L115,30 L115,9.1 Z" id="Shape"></path>
                <path d="M7.8,37.8 C7.6,37.6 7.5,37.3 7.2,37.2 C7,37 6.7,36.9 6.5,36.8 C6.2,36.7 5.9,36.7 5.6,36.7 C5.1,36.7 4.6,36.8 4.2,37 C3.8,37.2 3.5,37.5 3.2,37.8 C3,38.1 2.8,38.5 2.6,39 C2.5,39.4 2.4,39.9 2.4,40.3 C2.4,40.7 2.5,41.2 2.6,41.6 C2.7,42 2.9,42.4 3.2,42.8 C3.4,43.1 3.8,43.4 4.2,43.6 C4.6,43.8 5.1,43.9 5.6,43.9 C6,43.9 6.3,43.8 6.6,43.7 C6.9,43.6 7.2,43.4 7.4,43.1 C7.6,42.9 7.8,42.6 7.9,42.3 C8,42 8.1,41.6 8.2,41.3 L9,41.3 C8.9,41.8 8.8,42.3 8.6,42.7 C8.4,43.1 8.2,43.4 7.9,43.7 C7.6,44 7.3,44.2 6.9,44.4 C6.5,44.6 6.1,44.6 5.6,44.6 C5,44.6 4.4,44.5 3.9,44.3 C3.4,44.1 3,43.8 2.7,43.4 C2.4,43 2.1,42.6 2,42 C1.8,41.5 1.8,40.9 1.8,40.4 C1.8,39.8 1.9,39.3 2,38.8 C2.2,38.3 2.4,37.8 2.7,37.4 C3,37 3.4,36.7 3.9,36.5 C4.4,36.3 5,36.2 5.6,36.2 C6,36.2 6.4,36.3 6.7,36.4 C7.1,36.5 7.4,36.7 7.7,36.9 C8,37.1 8.3,37.4 8.5,37.7 C8.7,38 8.8,38.4 8.9,38.8 L8.1,38.8 C8.1,38.3 8,38 7.8,37.8 Z" id="Shape"></path>
                <polygon id="Shape" points="10.8 36.1 10.8 44.3 10.1 44.3 10.1 36.1"></polygon>
                <path d="M13,36.1 L13,37.3 L12.3,37.3 L12.3,36.1 L13,36.1 Z M13,38.4 L13,44.3 L12.3,44.3 L12.3,38.4 L13,38.4 Z" id="Shape"></path>
                <path d="M15.1,38.4 L15.1,39.4 C15.2,39 15.5,38.8 15.8,38.5 C16.2,38.3 16.5,38.2 17,38.2 C17.4,38.2 17.8,38.3 18,38.4 C18.3,38.5 18.5,38.7 18.7,38.9 C18.9,39.1 19,39.3 19.1,39.6 C19.2,39.9 19.2,40.2 19.2,40.6 L19.2,44.4 L18.5,44.4 L18.5,40.7 C18.5,40.4 18.5,40.2 18.4,40 C18.4,39.8 18.3,39.6 18.2,39.4 C18.1,39.2 17.9,39.1 17.7,39 C17.5,38.9 17.3,38.9 17,38.9 C16.7,38.9 16.4,39 16.2,39.1 C16,39.2 15.8,39.3 15.6,39.5 C15.4,39.7 15.3,39.9 15.2,40.1 C15.1,40.3 15.1,40.6 15.1,40.9 L15.1,44.4 L14.4,44.4 L14.4,38.5 L15.1,38.5 L15.1,38.4 Z" id="Shape"></path>
                <path d="M21.3,36.1 L21.3,37.3 L20.6,37.3 L20.6,36.1 L21.3,36.1 Z M21.3,38.4 L21.3,44.3 L20.6,44.3 L20.6,38.4 L21.3,38.4 Z" id="Shape"></path>
                <path d="M26.3,39.2 C26,38.9 25.7,38.8 25.2,38.8 C24.9,38.8 24.6,38.9 24.3,39 C24,39.1 23.8,39.3 23.7,39.6 C23.5,39.8 23.4,40.1 23.3,40.4 C23.2,40.7 23.2,41 23.2,41.3 C23.2,41.6 23.2,41.9 23.3,42.2 C23.4,42.5 23.5,42.8 23.7,43 C23.9,43.2 24.1,43.4 24.3,43.6 C24.6,43.7 24.9,43.8 25.2,43.8 C25.4,43.8 25.6,43.8 25.8,43.7 C26,43.6 26.2,43.5 26.3,43.3 C26.5,43.2 26.6,43 26.7,42.8 C26.8,42.6 26.9,42.4 26.9,42.1 L27.6,42.1 C27.5,42.8 27.2,43.4 26.8,43.8 C26.4,44.2 25.8,44.4 25.1,44.4 C24.6,44.4 24.2,44.3 23.9,44.2 C23.6,44 23.3,43.8 23,43.5 C22.8,43.2 22.6,42.9 22.5,42.5 C22.4,42.1 22.3,41.7 22.3,41.3 C22.3,40.9 22.4,40.5 22.5,40.1 C22.6,39.7 22.8,39.4 23,39.1 C23.2,38.8 23.5,38.6 23.9,38.4 C24.2,38.2 24.6,38.1 25.1,38.1 C25.7,38.1 26.3,38.3 26.7,38.6 C27.1,38.9 27.4,39.4 27.5,40.1 L26.8,40.1 C26.7,39.8 26.6,39.5 26.3,39.2 Z" id="Shape"></path>
                <path d="M28.8,39.3 C28.9,39 29.1,38.8 29.3,38.7 C29.5,38.5 29.8,38.4 30,38.3 C30.3,38.2 30.6,38.2 30.9,38.2 C31.2,38.2 31.4,38.2 31.7,38.3 C32,38.4 32.2,38.4 32.4,38.6 C32.6,38.7 32.8,38.9 32.9,39.2 C33,39.4 33.1,39.8 33.1,40.2 L33.1,43.3 C33.1,43.6 33.2,43.7 33.5,43.7 C33.6,43.7 33.7,43.7 33.7,43.7 L33.7,44.3 C33.6,44.3 33.5,44.3 33.5,44.3 C33.4,44.3 33.4,44.3 33.3,44.3 C33.1,44.3 33,44.3 32.9,44.2 C32.8,44.1 32.7,44.1 32.6,44 C32.5,43.9 32.5,43.8 32.5,43.7 C32.5,43.6 32.5,43.4 32.5,43.3 C32.4,43.5 32.2,43.7 32.1,43.8 C32,43.9 31.8,44.1 31.7,44.2 C31.5,44.3 31.3,44.4 31.1,44.4 C30.9,44.5 30.6,44.5 30.3,44.5 C30,44.5 29.8,44.5 29.5,44.4 C29.3,44.3 29,44.2 28.9,44.1 C28.7,44 28.6,43.8 28.5,43.6 C28.4,43.4 28.3,43.1 28.3,42.8 C28.3,42.4 28.4,42.1 28.6,41.8 C28.8,41.6 29,41.4 29.3,41.3 C29.6,41.2 29.9,41.1 30.3,41 C30.7,41 31.1,40.9 31.5,40.9 C31.7,40.9 31.8,40.9 31.9,40.8 C32,40.8 32.1,40.7 32.2,40.7 C32.3,40.6 32.3,40.6 32.4,40.5 C32.5,40.4 32.5,40.3 32.5,40.1 C32.5,39.9 32.5,39.7 32.4,39.5 C32.3,39.3 32.2,39.2 32.1,39.1 C32,39 31.8,38.9 31.6,38.9 C31.4,38.9 31.2,38.8 31,38.8 C30.5,38.8 30.2,38.9 29.9,39.1 C29.6,39.3 29.5,39.7 29.4,40.2 L28.7,40.2 C28.6,39.9 28.6,39.6 28.8,39.3 Z M32.4,41.1 C32.4,41.2 32.3,41.2 32.1,41.3 C32,41.3 31.9,41.4 31.8,41.4 C31.5,41.5 31.2,41.5 30.9,41.5 C30.6,41.5 30.3,41.6 30,41.7 C29.7,41.8 29.5,41.9 29.3,42.1 C29.1,42.3 29,42.5 29,42.8 C29,43 29,43.1 29.1,43.3 C29.2,43.4 29.3,43.6 29.4,43.7 C29.5,43.8 29.7,43.9 29.8,43.9 C30,44 30.1,44 30.3,44 C30.6,44 30.8,44 31.1,43.9 C31.4,43.8 31.6,43.7 31.8,43.5 C32,43.3 32.1,43.1 32.2,42.9 C32.3,42.7 32.4,42.4 32.4,42.1 L32.4,41.1 Z" id="Shape"></path>
                <polygon id="Shape" points="35.3 36.1 35.3 44.3 34.6 44.3 34.6 36.1"></polygon>
                <path d="M46.5,44.3 L46.4,42.8 C46.3,43.1 46.1,43.3 45.9,43.6 C45.7,43.8 45.5,44 45.2,44.1 C45,44.2 44.7,44.3 44.4,44.4 C44.1,44.5 43.8,44.5 43.5,44.5 C42.9,44.5 42.3,44.4 41.8,44.2 C41.3,44 40.9,43.7 40.6,43.3 C40.3,42.9 40,42.5 39.9,41.9 C39.7,41.4 39.7,40.8 39.7,40.3 C39.7,39.7 39.8,39.2 39.9,38.7 C40.1,38.2 40.3,37.7 40.6,37.3 C40.9,36.9 41.3,36.6 41.8,36.4 C42.3,36.2 42.9,36.1 43.5,36.1 C43.9,36.1 44.3,36.2 44.7,36.3 C45.1,36.4 45.4,36.6 45.7,36.8 C46,37 46.3,37.3 46.5,37.6 C46.7,37.9 46.8,38.3 46.9,38.8 L46.1,38.8 C46.1,38.6 46,38.3 45.9,38.1 C45.8,37.9 45.6,37.6 45.4,37.4 C45.2,37.2 44.9,37 44.6,36.9 C44.3,36.8 43.9,36.7 43.5,36.7 C43,36.7 42.5,36.8 42.1,37 C41.7,37.2 41.4,37.5 41.1,37.8 C40.9,38.1 40.7,38.5 40.5,39 C40.4,39.4 40.3,39.9 40.3,40.3 C40.3,40.7 40.4,41.2 40.5,41.6 C40.6,42 40.8,42.4 41.1,42.8 C41.3,43.1 41.7,43.4 42.1,43.6 C42.5,43.8 43,43.9 43.5,43.9 C44,43.9 44.4,43.8 44.7,43.7 C45.1,43.6 45.4,43.3 45.6,43.1 C45.8,42.8 46,42.5 46.2,42.1 C46.3,41.7 46.4,41.3 46.4,40.9 L43.6,40.9 L43.6,40.2 L47.1,40.2 L47.1,44.4 L46.5,44.4 L46.5,44.3 Z" id="Shape"></path>
                <path d="M49,42.4 C49.1,42.7 49.2,42.9 49.4,43.2 C49.6,43.4 49.8,43.6 50,43.8 C50.2,43.9 50.5,44 50.9,44 C51.4,44 51.8,43.9 52.1,43.6 C52.4,43.3 52.6,43 52.7,42.5 L53.4,42.5 C53.2,43.2 53,43.7 52.6,44.1 C52.2,44.5 51.6,44.7 50.9,44.7 C50.4,44.7 50,44.6 49.7,44.5 C49.4,44.3 49.1,44.1 48.9,43.8 C48.7,43.5 48.5,43.2 48.4,42.8 C48.3,42.4 48.2,42 48.2,41.6 C48.2,41.2 48.3,40.8 48.4,40.5 C48.5,40.1 48.7,39.8 48.9,39.5 C49.1,39.2 49.4,39 49.7,38.8 C50,38.6 50.4,38.5 50.9,38.5 C51.4,38.5 51.8,38.6 52.1,38.8 C52.4,39 52.7,39.2 52.9,39.6 C53.1,39.9 53.3,40.3 53.4,40.7 C53.5,41.1 53.5,41.5 53.5,41.9 L48.9,41.9 C48.8,41.8 48.9,42.1 49,42.4 Z M52.5,40.2 C52.4,39.9 52.3,39.7 52.1,39.5 C51.9,39.3 51.7,39.1 51.5,39 C51.3,38.9 51,38.8 50.7,38.8 C50.4,38.8 50.1,38.9 49.9,39 C49.7,39.1 49.5,39.3 49.3,39.5 C49.1,39.7 49,39.9 48.9,40.2 C48.8,40.5 48.7,40.7 48.7,41 L52.5,41 C52.7,40.7 52.6,40.4 52.5,40.2 Z" id="Shape"></path>
                <path d="M55.1,38.4 L55.1,39.4 C55.2,39 55.5,38.8 55.8,38.5 C56.2,38.3 56.5,38.2 57,38.2 C57.4,38.2 57.8,38.3 58,38.4 C58.3,38.5 58.5,38.7 58.7,38.9 C58.9,39.1 59,39.3 59.1,39.6 C59.2,39.9 59.2,40.2 59.2,40.6 L59.2,44.4 L58.5,44.4 L58.5,40.7 C58.5,40.4 58.5,40.2 58.4,40 C58.3,39.8 58.3,39.6 58.2,39.4 C58.1,39.2 57.9,39.1 57.7,39 C57.5,38.9 57.3,38.9 57,38.9 C56.7,38.9 56.4,39 56.2,39.1 C56,39.2 55.8,39.3 55.6,39.5 C55.4,39.7 55.3,39.9 55.2,40.1 C55.1,40.3 55.1,40.6 55.1,40.9 L55.1,44.4 L54.4,44.4 L54.4,38.5 L55.1,38.5 L55.1,38.4 Z" id="Shape"></path>
                <path d="M64.3,38.5 C64.6,38.7 64.9,38.9 65.2,39.2 C65.4,39.5 65.6,39.8 65.7,40.2 C65.8,40.6 65.9,41 65.9,41.4 C65.9,41.8 65.8,42.2 65.7,42.6 C65.6,43 65.4,43.3 65.2,43.6 C65,43.9 64.7,44.1 64.3,44.3 C64,44.5 63.6,44.5 63.1,44.5 C62.6,44.5 62.2,44.4 61.9,44.3 C61.6,44.1 61.3,43.9 61,43.6 C60.8,43.3 60.6,43 60.5,42.6 C60.4,42.2 60.3,41.8 60.3,41.4 C60.3,41 60.4,40.6 60.5,40.2 C60.6,39.8 60.8,39.5 61,39.2 C61.2,38.9 61.5,38.7 61.9,38.5 C62.2,38.3 62.6,38.2 63.1,38.2 C63.5,38.2 63.9,38.3 64.3,38.5 Z M62.2,39.1 C61.9,39.2 61.7,39.4 61.6,39.7 C61.4,39.9 61.3,40.2 61.2,40.5 C61.1,40.8 61.1,41.1 61.1,41.4 C61.1,41.7 61.1,42 61.2,42.3 C61.3,42.6 61.4,42.9 61.6,43.1 C61.8,43.3 62,43.5 62.2,43.7 C62.5,43.8 62.8,43.9 63.1,43.9 C63.4,43.9 63.7,43.8 64,43.7 C64.3,43.6 64.5,43.4 64.6,43.1 C64.8,42.9 64.9,42.6 65,42.3 C65.1,42 65.1,41.7 65.1,41.4 C65.1,41.1 65.1,40.8 65,40.5 C64.9,40.2 64.8,39.9 64.6,39.7 C64.4,39.5 64.2,39.3 64,39.1 C63.7,39 63.4,38.9 63.1,38.9 C62.8,38.9 62.4,38.9 62.2,39.1 Z" id="Shape"></path>
                <path d="M67.6,38.4 L67.6,39.4 C67.8,39 68,38.7 68.4,38.5 C68.7,38.3 69.1,38.2 69.6,38.2 C70,38.2 70.3,38.3 70.7,38.5 C71,38.7 71.2,39 71.3,39.4 C71.5,39 71.7,38.7 72.1,38.5 C72.4,38.3 72.8,38.2 73.2,38.2 C74.5,38.2 75.2,38.9 75.2,40.3 L75.2,44.3 L74.5,44.3 L74.5,40.3 C74.5,39.8 74.4,39.4 74.2,39.2 C74,38.9 73.6,38.8 73.1,38.8 C72.8,38.8 72.5,38.9 72.3,39 C72.1,39.1 71.9,39.3 71.8,39.5 C71.7,39.7 71.6,39.9 71.5,40.2 C71.5,40.5 71.4,40.7 71.4,41 L71.4,44.4 L70.7,44.4 L70.7,40.4 C70.7,40.2 70.7,40 70.6,39.8 C70.6,39.6 70.5,39.5 70.4,39.3 C70.3,39.2 70.2,39.1 70,39 C69.8,38.9 69.6,38.9 69.4,38.9 C69.1,38.9 68.8,39 68.6,39.1 C68.4,39.2 68.2,39.4 68,39.6 C67.9,39.8 67.8,40 67.7,40.3 C67.6,40.6 67.6,40.9 67.6,41.2 L67.6,44.5 L66.9,44.5 L66.9,38.6 L67.6,38.6 L67.6,38.4 Z" id="Shape"></path>
                <path d="M77,42.4 C77.1,42.7 77.2,42.9 77.4,43.2 C77.6,43.4 77.8,43.6 78,43.8 C78.2,43.9 78.5,44 78.9,44 C79.4,44 79.8,43.9 80.1,43.6 C80.4,43.3 80.6,43 80.7,42.5 L81.4,42.5 C81.2,43.2 81,43.7 80.6,44.1 C80.2,44.5 79.6,44.7 78.9,44.7 C78.4,44.7 78,44.6 77.7,44.5 C77.4,44.3 77.1,44.1 76.9,43.8 C76.7,43.5 76.5,43.2 76.4,42.8 C76.3,42.4 76.2,42 76.2,41.6 C76.2,41.2 76.3,40.8 76.4,40.5 C76.5,40.1 76.7,39.8 76.9,39.5 C77.1,39.2 77.4,39 77.7,38.8 C78,38.6 78.4,38.5 78.9,38.5 C79.4,38.5 79.8,38.6 80.1,38.8 C80.4,39 80.7,39.2 80.9,39.6 C81.1,39.9 81.3,40.3 81.4,40.7 C81.5,41.1 81.5,41.5 81.5,41.9 L76.9,41.9 C76.9,41.8 77,42.1 77,42.4 Z M80.6,40.2 C80.5,39.9 80.4,39.7 80.2,39.5 C80,39.3 79.8,39.1 79.6,39 C79.4,38.9 79.1,38.8 78.8,38.8 C78.5,38.8 78.2,38.9 78,39 C77.8,39.1 77.6,39.3 77.4,39.5 C77.2,39.7 77.1,39.9 77,40.2 C76.9,40.5 76.8,40.7 76.8,41 L80.6,41 C80.8,40.7 80.7,40.4 80.6,40.2 Z" id="Shape"></path>
                <path d="M89.5,36.1 C89.8,36.1 90.2,36.1 90.5,36.2 C90.8,36.3 91.1,36.4 91.3,36.6 C91.5,36.8 91.7,37 91.8,37.3 C91.9,37.6 92,37.9 92,38.3 C92,38.8 91.9,39.3 91.6,39.7 C91.3,40.1 90.9,40.3 90.4,40.4 C90.7,40.4 90.9,40.5 91.1,40.6 C91.3,40.7 91.4,40.8 91.5,41 C91.6,41.2 91.7,41.3 91.7,41.6 C91.7,41.8 91.8,42 91.8,42.3 C91.8,42.4 91.8,42.6 91.8,42.8 C91.8,43 91.8,43.2 91.8,43.4 C91.8,43.6 91.9,43.8 91.9,44 C91.9,44.2 92,44.3 92.1,44.4 L91.2,44.4 C91.2,44.3 91.1,44.2 91.1,44.1 C91.1,44 91.1,43.9 91,43.8 C91,43.7 91,43.6 91,43.5 C91,43.4 91,43.3 91,43.2 C91,42.9 91,42.6 90.9,42.3 C90.9,42 90.8,41.8 90.7,41.5 C90.6,41.3 90.4,41.1 90.2,41 C90,40.9 89.7,40.8 89.3,40.8 L86.4,40.8 L86.4,44.4 L85.6,44.4 L85.6,36.2 L89.5,36.2 L89.5,36.1 Z M89.5,40 C89.7,40 90,40 90.2,39.9 C90.4,39.8 90.6,39.7 90.8,39.6 C91,39.5 91.1,39.3 91.2,39.1 C91.3,38.9 91.3,38.7 91.3,38.4 C91.3,37.9 91.2,37.5 90.9,37.2 C90.6,36.9 90.2,36.8 89.6,36.8 L86.7,36.8 L86.7,40 L89.5,40 Z" id="Shape"></path>
                <path d="M93.8,42.4 C93.9,42.7 94,42.9 94.1,43.2 C94.3,43.4 94.5,43.6 94.7,43.8 C94.9,43.9 95.2,44 95.6,44 C96.1,44 96.5,43.9 96.8,43.6 C97.1,43.3 97.3,43 97.4,42.5 L98.1,42.5 C97.9,43.2 97.7,43.7 97.3,44.1 C96.9,44.5 96.3,44.7 95.6,44.7 C95.1,44.7 94.7,44.6 94.4,44.5 C94.1,44.3 93.8,44.1 93.6,43.8 C93.4,43.5 93.2,43.2 93.1,42.8 C93,42.4 92.9,42 92.9,41.6 C92.9,41.2 93,40.8 93.1,40.5 C93.2,40.1 93.4,39.8 93.6,39.5 C93.8,39.2 94.1,39 94.4,38.8 C94.7,38.6 95.1,38.5 95.6,38.5 C96.1,38.5 96.5,38.6 96.8,38.8 C97.1,39 97.4,39.2 97.6,39.6 C97.8,39.9 98,40.3 98.1,40.7 C98.2,41.1 98.2,41.5 98.2,41.9 L93.7,41.9 C93.7,41.8 93.8,42.1 93.8,42.4 Z M97.4,40.2 C97.3,39.9 97.2,39.7 97,39.5 C96.8,39.3 96.6,39.1 96.4,39 C96.2,38.9 95.9,38.8 95.6,38.8 C95.3,38.8 95,38.9 94.8,39 C94.6,39.1 94.4,39.3 94.2,39.5 C94,39.7 93.9,39.9 93.8,40.2 C93.7,40.5 93.6,40.7 93.6,41 L97.4,41 C97.5,40.7 97.5,40.4 97.4,40.2 Z" id="Shape"></path>
                <path d="M102.6,39.6 C102.5,39.4 102.4,39.3 102.3,39.2 C102.2,39.1 102,39 101.8,39 C101.6,38.9 101.4,38.9 101.2,38.9 C101,38.9 100.9,38.9 100.7,39 C100.5,39 100.4,39.1 100.2,39.2 C100.1,39.3 100,39.4 99.9,39.5 C99.8,39.6 99.8,39.8 99.8,40 C99.8,40.2 99.8,40.3 99.9,40.4 C100,40.5 100.1,40.6 100.2,40.7 C100.3,40.8 100.5,40.8 100.6,40.9 C100.7,41 100.9,41 101,41 L102,41.2 C102.2,41.2 102.4,41.3 102.6,41.4 C102.8,41.5 103,41.6 103.1,41.7 C103.3,41.8 103.4,42 103.5,42.2 C103.6,42.4 103.6,42.6 103.6,42.9 C103.6,43.2 103.5,43.5 103.4,43.7 C103.3,43.9 103.1,44.1 102.8,44.3 C102.6,44.4 102.3,44.5 102,44.6 C101.7,44.7 101.4,44.7 101.2,44.7 C100.5,44.7 99.9,44.5 99.5,44.2 C99.1,43.9 98.8,43.3 98.8,42.6 L99.5,42.6 C99.5,43.1 99.7,43.5 100,43.7 C100.3,43.9 100.7,44.1 101.2,44.1 C101.4,44.1 101.6,44.1 101.7,44 C101.9,44 102.1,43.9 102.2,43.8 C102.4,43.7 102.5,43.6 102.6,43.5 C102.7,43.4 102.8,43.2 102.8,43 C102.8,42.8 102.8,42.7 102.7,42.6 C102.6,42.5 102.5,42.4 102.4,42.3 C102.3,42.2 102.1,42.2 102,42.1 C101.8,42 101.7,42 101.5,42 L100.6,41.8 C100.4,41.7 100.1,41.7 99.9,41.6 C99.7,41.5 99.5,41.4 99.4,41.3 C99.3,41.2 99.1,41 99.1,40.9 C99.1,40.8 99,40.5 99,40.3 C99,40 99.1,39.7 99.2,39.5 C99.3,39.3 99.5,39.1 99.7,39 C99.9,38.9 100.2,38.8 100.4,38.7 C100.7,38.6 100.9,38.6 101.2,38.6 C101.5,38.6 101.8,38.6 102,38.7 C102.3,38.8 102.5,38.9 102.7,39.1 C102.9,39.3 103,39.5 103.2,39.7 C103.3,39.9 103.4,40.2 103.4,40.5 L102.7,40.5 C102.7,39.9 102.7,39.7 102.6,39.6 Z" id="Shape"></path>
                <path d="M108.4,38.5 C108.7,38.7 109,38.9 109.3,39.2 C109.5,39.5 109.7,39.8 109.8,40.2 C109.9,40.6 110,41 110,41.4 C110,41.8 109.9,42.2 109.8,42.6 C109.7,43 109.5,43.3 109.3,43.6 C109.1,43.9 108.8,44.1 108.4,44.3 C108.1,44.5 107.7,44.5 107.2,44.5 C106.7,44.5 106.4,44.4 106,44.3 C105.7,44.1 105.4,43.9 105.1,43.6 C104.9,43.3 104.7,43 104.6,42.6 C104.5,42.2 104.4,41.8 104.4,41.4 C104.4,41 104.5,40.6 104.6,40.2 C104.7,39.8 104.9,39.5 105.1,39.2 C105.3,38.9 105.6,38.7 106,38.5 C106.3,38.3 106.7,38.2 107.2,38.2 C107.7,38.2 108.1,38.3 108.4,38.5 Z M106.3,39.1 C106,39.2 105.8,39.4 105.7,39.7 C105.5,39.9 105.4,40.2 105.3,40.5 C105.2,40.8 105.2,41.1 105.2,41.4 C105.2,41.7 105.2,42 105.3,42.3 C105.4,42.6 105.5,42.9 105.7,43.1 C105.9,43.3 106.1,43.5 106.3,43.7 C106.6,43.8 106.9,43.9 107.2,43.9 C107.5,43.9 107.8,43.8 108.1,43.7 C108.4,43.6 108.6,43.4 108.7,43.1 C108.9,42.9 109,42.6 109.1,42.3 C109.2,42 109.2,41.7 109.2,41.4 C109.2,41.1 109.2,40.8 109.1,40.5 C109,40.2 108.9,39.9 108.7,39.7 C108.5,39.5 108.3,39.3 108.1,39.1 C107.8,39 107.5,38.9 107.2,38.9 C106.9,38.9 106.6,38.9 106.3,39.1 Z" id="Shape"></path>
                <path d="M115.2,44.3 L115.2,43.2 C115,43.6 114.7,43.9 114.4,44.1 C114,44.3 113.6,44.4 113.2,44.4 C112.8,44.4 112.5,44.3 112.2,44.2 C111.9,44.1 111.7,43.9 111.6,43.8 C111.4,43.6 111.3,43.4 111.2,43.1 C111.1,42.8 111.1,42.5 111.1,42.2 L111.1,38.4 L111.8,38.4 L111.8,42.3 C111.8,42.8 111.9,43.2 112.2,43.5 C112.4,43.8 112.8,43.9 113.4,43.9 C113.7,43.9 114,43.8 114.2,43.7 C114.4,43.6 114.6,43.4 114.7,43.2 C114.8,43 115,42.7 115,42.4 C115.1,42.1 115.1,41.8 115.1,41.5 L115.1,38.4 L115.8,38.4 L115.8,44.3 L115.2,44.3 Z" id="Shape"></path>
                <path d="M117.9,38.4 L117.9,39.8 C118.1,39.3 118.4,38.9 118.8,38.7 C119.2,38.4 119.6,38.3 120.2,38.3 L120.2,39 C119.9,39 119.6,39 119.3,39.1 C119,39.2 118.8,39.4 118.6,39.5 C118.4,39.7 118.3,39.9 118.1,40.2 C118,40.5 117.9,40.8 117.9,41.1 L117.9,44.3 L117.2,44.3 L117.2,38.4 L117.9,38.4 Z" id="Shape"></path>
                <path d="M124.2,39.2 C123.9,38.9 123.6,38.8 123.1,38.8 C122.8,38.8 122.5,38.9 122.2,39 C121.9,39.1 121.7,39.3 121.6,39.6 C121.4,39.8 121.3,40.1 121.2,40.4 C121.1,40.7 121.1,41 121.1,41.3 C121.1,41.6 121.1,41.9 121.2,42.2 C121.3,42.5 121.4,42.8 121.6,43 C121.8,43.2 122,43.4 122.2,43.6 C122.5,43.7 122.8,43.8 123.1,43.8 C123.3,43.8 123.5,43.8 123.7,43.7 C123.9,43.6 124.1,43.5 124.2,43.3 C124.4,43.2 124.5,43 124.6,42.8 C124.7,42.6 124.8,42.4 124.8,42.1 L125.5,42.1 C125.4,42.8 125.1,43.4 124.7,43.8 C124.3,44.2 123.7,44.4 123.1,44.4 C122.6,44.4 122.3,44.3 121.9,44.2 C121.5,44.1 121.3,43.8 121,43.5 C120.8,43.2 120.6,42.9 120.5,42.5 C120.4,42.1 120.3,41.7 120.3,41.3 C120.3,40.9 120.4,40.5 120.5,40.1 C120.6,39.7 120.8,39.4 121,39.1 C121.2,38.8 121.5,38.6 121.9,38.4 C122.3,38.2 122.6,38.1 123.1,38.1 C123.7,38.1 124.3,38.3 124.7,38.6 C125.1,38.9 125.4,39.4 125.5,40.1 L124.8,40.1 C124.7,39.8 124.5,39.5 124.2,39.2 Z" id="Shape"></path>
                <path d="M127.1,42.4 C127.2,42.7 127.3,42.9 127.4,43.2 C127.6,43.4 127.8,43.6 128,43.8 C128.2,43.9 128.5,44 128.9,44 C129.4,44 129.8,43.9 130.1,43.6 C130.4,43.3 130.6,43 130.7,42.5 L131.4,42.5 C131.2,43.2 131,43.7 130.6,44.1 C130.2,44.5 129.6,44.7 128.9,44.7 C128.4,44.7 128,44.6 127.7,44.5 C127.4,44.3 127.1,44.1 126.9,43.8 C126.7,43.5 126.5,43.2 126.4,42.8 C126.3,42.4 126.2,42 126.2,41.6 C126.2,41.2 126.3,40.8 126.4,40.5 C126.5,40.1 126.7,39.8 126.9,39.5 C127.1,39.2 127.4,39 127.7,38.8 C128,38.6 128.4,38.5 128.9,38.5 C129.4,38.5 129.8,38.6 130.1,38.8 C130.4,39 130.7,39.2 130.9,39.6 C131.1,39.9 131.3,40.3 131.4,40.7 C131.5,41.1 131.5,41.5 131.5,41.9 L127,41.9 C127,41.8 127,42.1 127.1,42.4 Z M130.6,40.2 C130.5,39.9 130.4,39.7 130.2,39.5 C130,39.3 129.8,39.1 129.6,39 C129.4,38.9 129.1,38.8 128.8,38.8 C128.5,38.8 128.2,38.9 128,39 C127.8,39.1 127.6,39.3 127.4,39.5 C127.2,39.7 127.1,39.9 127,40.2 C126.9,40.5 126.8,40.7 126.8,41 L130.6,41 C130.8,40.7 130.7,40.4 130.6,40.2 Z" id="Shape"></path>
            </g>
            <g id="Logo">
                <path d="M31.8,0.5 C32,0.6 32.1,0.5 32.3,0.6 C32.9,0.6 33.3,1 33.3,1.6 C33.4,2.2 32.9,2.8 32.3,2.8 C31.9,2.8 31.5,2.8 31.2,2.7 C30.7,2.6 30.4,2.2 30.3,1.8 C30.2,1.3 30.5,0.9 30.9,0.7 C31,0.7 31.1,0.7 31.1,0.6 C31.3,0.5 31.6,0.5 31.8,0.5 Z" id="Shape" fill="#215AA6"></path>
                <path d="M61.8,25.8 C62.2,25.8 62.6,26.1 62.9,26.6 C63.1,27 63.2,27.4 63.3,27.8 C63.5,28.5 63.1,29.2 62.4,29.4 C61.7,29.6 61,29.3 60.7,28.7 C60.5,28.3 60.4,27.9 60.3,27.5 C60.2,26.6 60.8,25.8 61.8,25.8 Z" id="Shape" fill="#293C93"></path>
                <path d="M59.8,20.5 C60.3,20.5 60.7,20.8 61,21.3 C61.2,21.6 61.3,22 61.4,22.3 C61.6,23 61.3,23.8 60.6,24 C59.9,24.3 59.2,24 58.9,23.3 C58.8,23 58.6,22.7 58.5,22.3 C58.2,21.3 58.9,20.5 59.8,20.5 Z" id="Shape" fill="#293C93"></path>
                <path d="M65.2,32.2 C65.2,32.8 64.8,33.3 64.3,33.5 C63.8,33.7 63.2,33.5 62.8,33 C62.6,32.6 62.3,32.3 62.2,31.9 C61.9,31.3 62.2,30.6 62.8,30.2 C63.4,29.9 64.1,30.1 64.5,30.6 C64.7,31 64.9,31.4 65.1,31.7 C65.2,31.9 65.2,32.1 65.2,32.2 Z" id="Shape" fill="#293C93"></path>
                <path d="M58,19.9 C57.7,19.9 57.3,19.7 57.1,19.3 C56.9,19 56.7,18.7 56.6,18.4 C56.3,17.8 56.5,17 57.1,16.7 C57.7,16.3 58.5,16.5 58.8,17.1 C59,17.4 59.2,17.7 59.3,18 C59.8,18.8 59.1,19.9 58,19.9 Z" id="Shape" fill="#294095"></path>
                <path d="M65.8,34.1 C66.3,34.1 66.6,34.2 66.8,34.5 C67.1,34.8 67.3,35.1 67.5,35.4 C67.8,36 67.7,36.7 67.2,37.1 C66.7,37.5 66,37.5 65.5,37 C65.2,36.7 65,36.4 64.8,36 C64.3,35.2 64.9,34.1 65.8,34.1 Z" id="Shape" fill="#293C93"></path>
                <path d="M56.9,14.7 C56.9,15.3 56.6,15.7 56.1,15.9 C55.6,16.1 55,16 54.7,15.5 C54.5,15.2 54.2,14.9 54,14.6 C53.6,14.1 53.7,13.3 54.2,12.9 C54.7,12.5 55.5,12.5 55.9,13 C56.2,13.3 56.4,13.6 56.6,13.9 C56.8,14.2 56.9,14.4 56.9,14.7 Z" id="Shape" fill="#294297"></path>
                <path d="M67.5,38.9 C67.5,38.4 67.7,38 68.2,37.8 C68.6,37.6 69.1,37.6 69.5,37.9 C69.9,38.2 70.2,38.5 70.5,38.9 C70.9,39.4 70.8,40.1 70.4,40.5 C70,40.9 69.3,41 68.8,40.7 C68.4,40.4 68.1,40.1 67.8,39.7 C67.6,39.4 67.5,39.1 67.5,38.9 Z" id="Shape" fill="#294095"></path>
                <path d="M52.6,12.5 C52.2,12.5 52,12.4 51.7,12.2 C51.5,12 51.2,11.7 51,11.5 C50.5,11 50.5,10.3 51,9.8 C51.5,9.3 52.2,9.3 52.7,9.7 C53,9.9 53.2,10.2 53.5,10.4 C53.9,10.8 53.9,11.3 53.7,11.8 C53.5,12.2 53.1,12.5 52.6,12.5 Z" id="Shape" fill="#294598"></path>
                <path d="M72.3,40.7 C72.5,40.7 72.7,40.8 72.9,40.9 C73.2,41.1 73.5,41.3 73.8,41.6 C74.3,42 74.4,42.7 74,43.3 C73.6,43.8 72.9,44 72.4,43.6 C72.1,43.4 71.8,43.2 71.5,42.9 C71.1,42.6 71,42 71.2,41.5 C71.3,41 71.7,40.7 72.3,40.7 Z" id="Shape" fill="#294297"></path>
                <path d="M50.3,8.2 C50.3,8.7 50.1,9 49.7,9.3 C49.3,9.5 48.9,9.5 48.5,9.3 C48.2,9.1 47.9,8.9 47.6,8.6 C47.1,8.2 47.1,7.5 47.4,7 C47.8,6.5 48.4,6.3 49,6.7 C49.3,6.9 49.7,7.1 50,7.4 C50.2,7.5 50.3,7.8 50.3,8.2 Z" id="Shape" fill="#29499A"></path>
                <path d="M78,45 C78,45.8 77.2,46.4 76.4,46.1 C76,45.9 75.6,45.7 75.3,45.5 C74.8,45.1 74.7,44.5 75,43.9 C75.3,43.4 76,43.2 76.5,43.4 C76.8,43.6 77.2,43.8 77.5,44 C77.8,44.3 78,44.6 78,45 Z" id="Shape" fill="#294297"></path>
                <path d="M45.3,6.9 C45.1,6.9 45,6.9 44.8,6.8 C44.5,6.6 44.2,6.5 44,6.3 C43.6,6 43.3,5.6 43.4,5.1 C43.5,4.6 43.8,4.2 44.3,4.1 C44.5,4 44.8,4.1 45,4.2 C45.3,4.4 45.6,4.5 45.9,4.7 C46.4,5 46.6,5.5 46.4,6 C46.3,6.5 45.8,6.9 45.3,6.9 Z" id="Shape" fill="#284D9D"></path>
                <path d="M80.3,45.4 C80.8,45.5 81.3,45.7 81.8,46.1 C82.2,46.4 82.3,47.1 82,47.5 C81.7,48 81.2,48.2 80.7,48 C80.3,47.9 80,47.7 79.6,47.6 C79.1,47.4 78.9,46.8 79,46.3 C79.1,45.8 79.6,45.4 80.3,45.4 Z" id="Shape" fill="#294598"></path>
                <path d="M40.3,2.3 C40.4,2.3 40.5,2.3 40.7,2.4 C41,2.5 41.3,2.6 41.6,2.7 C42.1,2.9 42.4,3.4 42.3,3.9 C42.2,4.5 41.8,4.9 41.3,4.9 C41.2,4.9 41,4.9 40.9,4.9 C40.5,4.8 40.2,4.7 39.8,4.5 C39.4,4.3 39.1,3.9 39.2,3.4 C39.2,2.9 39.5,2.5 39.9,2.4 C40,2.3 40.2,2.3 40.3,2.3 Z" id="Shape" fill="#2551A0"></path>
                <path d="M87.6,44.2 C87.6,44.2 87.6,44.3 87.6,44.4 C87.5,44.7 87.4,45.1 87.3,45.4 C87.1,46 86.6,46.3 86,46.2 C85.5,46.1 85.1,45.6 85.1,45 C85.1,44.9 85.1,44.8 85.1,44.8 C85.2,44.5 85.3,44.1 85.4,43.8 C85.6,43.4 86,43.1 86.5,43.1 C87,43.1 87.4,43.4 87.5,43.9 C87.6,44 87.6,44.1 87.6,44.2 Z" id="Shape" fill="#29499A"></path>
                <path d="M36.5,4.7 C36.5,4.9 36.5,5 36.4,5.2 C36.3,5.5 36.1,5.7 36,6 C35.7,6.6 35,6.8 34.5,6.5 C34,6.2 33.7,5.6 34,5 C34.1,4.7 34.3,4.4 34.4,4.1 C34.6,3.6 35.2,3.4 35.7,3.5 C36.2,3.7 36.6,4.1 36.5,4.7 Z" id="Shape" fill="#294598"></path>
                <path d="M34.8,2.2 C34.8,1.5 35.4,1 36.1,1.1 C36.4,1.2 36.7,1.2 37,1.3 C37.6,1.4 38,2 37.8,2.6 C37.7,3.2 37.1,3.6 36.5,3.4 C36.2,3.3 35.9,3.3 35.6,3.2 C35.1,3.1 34.8,2.7 34.8,2.2 Z" id="Shape" fill="#2356A3"></path>
                <path d="M89.7,50 C89.5,50 89.2,50 88.9,49.9 C88.4,49.8 88,49.4 87.9,48.9 C87.8,48.4 88.1,47.9 88.6,47.8 C88.7,47.7 88.9,47.7 89,47.7 C89.4,47.7 89.7,47.7 90.1,47.8 C90.6,47.9 91,48.3 91,48.8 C91,49.3 90.7,49.8 90.2,49.9 C90.1,50.1 89.9,50 89.7,50 Z" id="Shape" fill="#29499A"></path>
                <path d="M75.4,32.9 C76,32.9 76.5,33.5 76.4,34.1 C76.4,34.4 76.3,34.8 76.2,35.1 C76.1,35.6 75.6,36 75.1,36 C74.6,36 74.1,35.6 74,35.1 C74,35 74,34.9 74,34.7 C74.1,34.4 74.2,34 74.3,33.7 C74.5,33.2 74.9,32.9 75.4,32.9 Z" id="Shape" fill="#294598"></path>
                <path d="M46.6,15 C46.6,15.2 46.6,15.3 46.5,15.5 C46.4,15.7 46.4,16 46.3,16.2 C46.1,16.8 45.6,17.1 45.1,17 C44.5,16.9 44.2,16.4 44.3,15.8 C44.4,15.5 44.4,15.1 44.5,14.8 C44.6,14.3 45.1,13.9 45.7,14 C46.2,14 46.6,14.4 46.6,15 Z" id="Shape" fill="#294598"></path>
                <path d="M94,47.9 C94.1,47.9 94.3,47.9 94.4,47.9 C95,47.9 95.4,48.3 95.4,48.9 C95.4,49.4 95,49.9 94.5,50 C94.2,50 93.8,50.1 93.5,50.1 C92.9,50.1 92.4,49.7 92.4,49.1 C92.4,48.4 92.9,48 93.4,48 C93.7,48 93.9,47.9 94,47.9 Z" id="Shape" fill="#284D9D"></path>
                <path d="M97.1,48.6 C97.1,48.2 97.4,47.8 97.7,47.7 C97.8,47.6 97.9,47.6 98,47.5 C98.3,47.2 98.8,47.1 99.2,47.4 C99.3,47.5 99.4,47.5 99.5,47.6 C99.9,47.8 100.1,48.2 100,48.6 C99.9,49 99.7,49.3 99.2,49.4 C98.8,49.5 98.5,49.6 98.1,49.6 C97.6,49.7 97.1,49.2 97.1,48.6 Z" id="Shape" fill="#284D9D"></path>
                <path d="M27.1,2.7 C27,2.7 26.8,2.7 26.7,2.7 C26.1,2.7 25.7,2.2 25.7,1.7 C25.7,1.2 26.1,0.7 26.6,0.6 C26.9,0.6 27.3,0.6 27.6,0.5 C28.1,0.5 28.6,0.8 28.7,1.5 C28.7,2 28.3,2.5 27.8,2.6 C27.6,2.7 27.3,2.7 27.1,2.7 C27.1,2.7 27.1,2.7 27.1,2.7 Z" id="Shape" fill="#2362AC"></path>
                <path d="M86.5,48.3 C86.5,49 85.9,49.5 85.2,49.4 C84.9,49.4 84.6,49.3 84.3,49.2 C84,49.1 83.6,48.5 83.6,48.1 C83.6,47.5 84,47 84.7,47 C85.1,47.1 85.5,47.1 85.9,47.4 C86.3,47.6 86.5,47.9 86.5,48.3 Z" id="Shape" fill="#294598"></path>
                <path d="M33.5,7.8 C34.2,7.8 34.7,8.5 34.5,9.1 C34.4,9.4 34.2,9.8 34.1,10.1 C33.9,10.6 33.3,10.8 32.9,10.6 C32.4,10.4 32.2,9.9 32.3,9.4 C32.4,9.1 32.5,8.7 32.7,8.4 C32.7,8 33.1,7.8 33.5,7.8 Z" id="Shape" fill="#2356A3"></path>
                <path d="M88.7,39.8 C88.6,40.2 88.6,40.6 88.4,41.1 C88.2,41.6 87.6,41.8 87.2,41.6 C86.7,41.4 86.4,40.9 86.5,40.4 C86.6,40.1 86.7,39.7 86.8,39.4 C87,38.9 87.4,38.7 87.9,38.8 C88.4,38.8 88.7,39.2 88.7,39.8 Z" id="Shape" fill="#294598"></path>
                <path d="M23.1,1.1 C23.7,1.1 24.1,1.5 24.2,2 C24.3,2.5 24,3 23.5,3.1 C23.1,3.2 22.7,3.3 22.4,3.3 C21.9,3.4 21.5,3 21.4,2.5 C21.3,2 21.5,1.5 22,1.3 C22.2,1.2 22.7,1.1 23.1,1.1 Z" id="Shape" fill="#2362AC"></path>
                <path d="M101.6,47.5 C101.6,47.2 101.8,46.8 102.2,46.7 C102.6,46.6 102.9,46.4 103.3,46.4 C103.8,46.3 104.2,46.6 104.4,47 C104.6,47.5 104.4,48 104,48.2 C103.6,48.4 103.2,48.5 102.7,48.6 C102.1,48.7 101.6,48.2 101.6,47.5 Z" id="Shape" fill="#284D9D"></path>
                <path d="M16.8,3.4 C16.8,3.1 17,2.8 17.4,2.6 C17.7,2.5 18.1,2.3 18.4,2.3 C18.9,2.2 19.4,2.4 19.6,2.9 C19.8,3.4 19.5,3.9 19,4.1 C18.7,4.2 18.4,4.3 18.1,4.4 C17.4,4.6 16.8,4.1 16.8,3.4 Z" id="Shape" fill="#2667AF"></path>
                <path d="M106.9,46.9 C106.5,46.9 106.1,46.6 106,46.2 C105.9,45.8 106,45.4 106.4,45.1 C106.7,44.9 107.1,44.7 107.5,44.6 C107.9,44.4 108.4,44.6 108.6,45.1 C108.8,45.5 108.7,46 108.3,46.3 C108,46.5 107.6,46.7 107.2,46.9 C107,46.9 106.9,46.9 106.9,46.9 Z" id="Shape" fill="#2551A0"></path>
                <path d="M14.4,4 C14.8,4 15.2,4.3 15.3,4.7 C15.4,5.1 15.3,5.5 14.9,5.7 C14.6,5.9 14.2,6.1 13.9,6.2 C13.5,6.4 13,6.2 12.8,5.8 C12.6,5.4 12.7,4.9 13.1,4.6 C13.4,4.4 13.8,4.2 14.1,4.1 C14.2,4 14.3,4 14.4,4 Z" id="Shape" fill="#216BB3"></path>
                <path d="M43.7,20.3 C43.7,20 43.7,19.7 43.8,19.4 C43.9,19 44.2,18.6 44.6,18.6 C45,18.5 45.4,18.8 45.6,19.1 C45.7,19.2 45.7,19.4 45.7,19.5 C45.6,19.9 45.6,20.2 45.5,20.6 C45.4,21.2 44.7,21.4 44.2,21.1 C43.7,21 43.6,20.7 43.7,20.3 Z" id="Shape" fill="#294598"></path>
                <path d="M112.5,43.1 C112.5,43.3 112.4,43.6 112.2,43.8 C111.9,44 111.7,44.2 111.4,44.4 C111,44.7 110.5,44.6 110.2,44.2 C109.9,43.8 110,43.3 110.4,43 C110.7,42.8 111,42.6 111.3,42.4 C111.7,42 112.5,42.4 112.5,43.1 Z" id="Shape" fill="#2551A0"></path>
                <path d="M77,29.5 C77,29.8 76.9,30.2 76.9,30.5 C76.8,31 76.4,31.3 75.9,31.2 C75.5,31.2 75.1,30.8 75.1,30.3 C75.1,29.9 75.2,29.5 75.3,29 C75.4,28.6 75.9,28.4 76.3,28.4 C76.7,28.6 77,29 77,29.5 Z" id="Shape" fill="#294598"></path>
                <path d="M30.9,14.1 C30.9,14.1 30.9,14 30.9,14 C31,13.7 31.1,13.4 31.1,13 C31.3,12.5 31.7,12.2 32.2,12.4 C32.7,12.5 33,13 32.8,13.5 C32.7,13.8 32.6,14.1 32.5,14.5 C32.3,14.9 31.9,15.1 31.5,15 C31.2,14.9 30.9,14.5 30.9,14.1 Z" id="Shape" fill="#2362AC"></path>
                <path d="M10.5,6.4 C10.9,6.4 11.2,6.6 11.3,6.9 C11.4,7.2 11.4,7.6 11.1,7.9 C10.8,8.2 10.5,8.4 10.2,8.6 C9.8,8.8 9.3,8.7 9.1,8.4 C8.8,8 8.9,7.5 9.2,7.2 C9.5,6.9 9.8,6.7 10.1,6.5 C10.2,6.4 10.3,6.4 10.5,6.4 Z" id="Shape" fill="#1E6FB6"></path>
                <path d="M89.6,35.3 C89.6,35.6 89.5,36 89.4,36.4 C89.3,36.9 88.8,37.1 88.3,37 C87.9,36.9 87.5,36.4 87.6,36 C87.7,35.7 87.7,35.3 87.8,35 C87.9,34.5 88.3,34.3 88.8,34.3 C89.3,34.4 89.6,34.8 89.6,35.3 Z" id="Shape" fill="#294297"></path>
                <path d="M115.8,39.9 C115.8,40.1 115.7,40.3 115.6,40.5 C115.4,40.8 115.2,41 114.9,41.3 C114.6,41.6 114,41.6 113.7,41.3 C113.4,41 113.3,40.5 113.6,40.1 C113.8,39.8 114.1,39.6 114.3,39.3 C114.6,39.1 114.9,39 115.2,39.2 C115.6,39.3 115.8,39.6 115.8,39.9 Z" id="Shape" fill="#2356A3"></path>
                <path d="M7.9,10.4 C7.9,10.6 7.8,10.8 7.7,10.9 C7.5,11.1 7.3,11.3 7.1,11.6 C6.8,12 6.3,12 5.9,11.7 C5.5,11.4 5.5,10.9 5.8,10.5 C6,10.3 6.2,10 6.4,9.8 C6.6,9.5 7,9.5 7.3,9.6 C7.7,9.7 7.9,10 7.9,10.4 Z" id="Shape" fill="#1A72B8"></path>
                <path d="M99.9,45.4 C99.4,45.4 98.9,44.9 99.1,44.4 C99.2,44.1 99.3,43.7 99.4,43.4 C99.6,43 100,42.8 100.4,42.9 C100.8,43 101.1,43.4 101,43.9 C100.9,44.2 100.8,44.5 100.7,44.8 C100.6,45.2 100.3,45.4 99.9,45.4 Z" id="Shape" fill="#294598"></path>
                <path d="M117.2,37.9 C116.6,37.9 116.2,37.3 116.4,36.8 C116.6,36.4 116.8,36 117.1,35.7 C117.3,35.4 117.8,35.4 118.1,35.6 C118.4,35.8 118.6,36.2 118.4,36.6 C118.2,37 118,37.3 117.8,37.7 C117.6,37.8 117.4,37.9 117.2,37.9 Z" id="Shape" fill="#2356A3"></path>
                <path d="M21.2,8.7 C21.2,8.7 21.2,8.8 21.2,8.9 C21.1,9.2 21,9.6 20.9,9.9 C20.8,10.3 20.4,10.4 20,10.4 C19.6,10.3 19.4,10.1 19.3,9.7 C19.3,9.6 19.3,9.5 19.3,9.4 C19.4,9.1 19.5,8.7 19.6,8.4 C19.7,8.1 20,7.9 20.4,7.9 C20.7,7.9 21,8.1 21.2,8.4 C21.1,8.5 21.1,8.6 21.2,8.7 Z" id="Shape" fill="#1A72B8"></path>
                <path d="M47.1,9.3 C46.4,9 45.7,9.5 45.5,10.1 C45.4,10.4 45.3,10.7 45.2,11 C45.1,11.5 45.2,11.9 45.5,12.3 C45.6,12.4 45.8,12.6 46,12.6 C46.5,12.8 47.2,12.6 47.5,12 C47.7,11.6 47.8,11.3 47.9,10.9 C48.2,10.2 47.7,9.5 47.1,9.3 Z" id="Shape" fill="#29499A"></path>
                <path d="M112.5,39.1 C112.5,39.1 112.5,39.2 112.5,39.2 C112.4,39.5 112.3,39.9 112.2,40.2 C112.1,40.6 111.7,40.8 111.4,40.8 C111,40.8 110.7,40.5 110.6,40.1 C110.6,40 110.6,39.9 110.6,39.8 C110.7,39.5 110.8,39.1 110.9,38.8 C111,38.5 111.4,38.2 111.7,38.3 C112.1,38.3 112.4,38.6 112.4,39 C112.5,39 112.5,39.1 112.5,39.1 Z" id="Shape" fill="#29499A"></path>
                <path d="M3.9,15.6 C3.3,15.6 2.9,15 3.2,14.5 C3.4,14.2 3.5,13.8 3.7,13.5 C3.9,13.2 4.4,13.1 4.8,13.3 C5.2,13.5 5.3,14 5.1,14.3 C4.9,14.6 4.7,14.9 4.5,15.3 C4.4,15.5 4.1,15.6 3.9,15.6 Z" id="Shape" fill="#1576BB"></path>
                <path d="M21.8,6.1 C21,6.1 20.6,5.5 20.8,4.9 C20.9,4.7 20.9,4.5 21,4.4 C21.2,4 21.7,3.8 22.2,4 C22.6,4.2 22.8,4.7 22.7,5.1 C22.6,5.3 22.5,5.5 22.4,5.7 C22.2,6 22,6.1 21.8,6.1 Z" id="Shape" fill="#216BB3"></path>
                <path d="M74.3,37.2 C74.3,37.6 74.2,37.9 74.1,38.2 C73.9,38.9 73.8,39.6 73.6,40.2 C73.6,40.3 73.6,40.4 73.6,40.5 C74.2,40.7 74.9,40.3 75.1,39.7 C75.2,39.4 75.3,39 75.4,38.7 C75.6,38 75.1,37.3 74.3,37.2 Z" id="Shape" fill="#294095"></path>
                <path d="M74.1,38.2 C74.2,37.9 74.3,37.5 74.3,37.2 C73.8,37.1 73.3,37.4 73.1,37.9 C73,38.2 72.8,38.6 72.7,39 C72.5,39.7 72.9,40.4 73.6,40.6 C73.6,40.5 73.6,40.4 73.6,40.3 C73.8,39.6 74,38.9 74.1,38.2 Z" id="Shape" fill="#29499A"></path>
                <path d="M31.7,17.8 C31.6,18.1 31.6,18.6 31.5,18.9 C31.4,19.2 31,19.4 30.7,19.4 C30.3,19.3 30,19 30,18.6 C30,18.2 30.1,17.9 30.2,17.5 C30.3,17.1 30.7,16.9 31.1,16.9 C31.4,17 31.7,17.3 31.7,17.8 Z" id="Shape" fill="#216BB3"></path>
                <path d="M2.4,17.5 C2.9,17.5 3.3,18 3.2,18.5 C3.1,18.8 3,19.2 2.9,19.5 C2.8,19.9 2.3,20.1 2,19.9 C1.6,19.8 1.4,19.4 1.5,19 C1.6,18.7 1.7,18.4 1.8,18 C1.8,17.6 2.1,17.5 2.4,17.5 Z" id="Shape" fill="#1576BB"></path>
                <path d="M10.8,10.1 C10.7,10.5 10.5,11 10.3,11.4 C10.1,11.7 9.7,11.7 9.4,11.6 C9.1,11.5 8.9,11.1 9,10.8 C9.1,10.4 9.2,10 9.4,9.6 C9.6,9.3 9.9,9.1 10.3,9.2 C10.6,9.4 10.8,9.7 10.8,10.1 Z" id="Shape" fill="#216BB3"></path>
                <path d="M90.1,30.7 C90.1,31 90,31.4 90,31.7 C89.9,32.1 89.5,32.4 89.1,32.3 C88.7,32.2 88.4,31.9 88.4,31.4 C88.4,31.1 88.5,30.8 88.5,30.5 C88.6,30.1 88.9,29.8 89.3,29.9 C89.9,29.9 90.2,30.3 90.1,30.7 Z" id="Shape" fill="#294598"></path>
                <path d="M121.2,27.7 C121.2,27.9 121.1,28.3 121.1,28.6 C121,29 120.7,29.2 120.3,29.2 C119.9,29.2 119.6,28.8 119.6,28.4 C119.6,28.1 119.7,27.7 119.7,27.4 C119.8,26.9 120.1,26.7 120.5,26.8 C120.9,26.8 121.2,27.1 121.2,27.7 Z" id="Shape" fill="#215AA6"></path>
                <path d="M102,39.2 C101.9,39.6 101.9,40 101.8,40.3 C101.7,40.7 101.3,40.9 100.9,40.8 C100.5,40.7 100.3,40.4 100.3,40 C100.4,39.7 100.4,39.3 100.5,39 C100.6,38.6 100.9,38.4 101.3,38.5 C101.7,38.5 102,38.8 102,39.2 Z" id="Shape" fill="#294297"></path>
                <path d="M77.3,25.3 C77.3,25.5 77.3,25.7 77.3,25.8 C77.3,26.2 76.9,26.5 76.5,26.5 C76.1,26.5 75.8,26.1 75.8,25.7 C75.8,25.4 75.9,25 75.9,24.7 C76,24.3 76.3,24.1 76.6,24.1 C77,24.1 77.3,24.4 77.3,24.8 C77.3,24.9 77.3,25.1 77.3,25.3 C77.3,25.3 77.3,25.3 77.3,25.3 Z" id="Shape" fill="#284D9D"></path>
                <path d="M2.1,22.8 C2.1,23.1 2,23.4 2,23.7 C1.9,24.1 1.7,24.3 1.4,24.3 C1.1,24.3 0.7,24.1 0.6,23.8 C0.6,23.7 0.5,23.6 0.6,23.5 C0.7,23.3 0.7,23 0.7,22.8 C0.7,22.7 0.7,22.6 0.7,22.6 C0.8,22.2 1.1,22 1.5,22 C1.9,22 2.2,22.3 2.2,22.8 C2.1,22.8 2.1,22.8 2.1,22.8 Z" id="Shape" fill="#1576BB"></path>
                <path d="M44.9,24.3 C44.9,24.6 44.8,24.9 44.8,25.2 C44.7,25.6 44.4,25.8 44.1,25.8 C43.8,25.8 43.5,25.5 43.4,25.2 C43.4,24.8 43.4,24.4 43.4,24.1 C43.4,23.7 43.8,23.4 44.2,23.5 C44.6,23.5 44.9,23.8 44.9,24.3 Z" id="Shape" fill="#29499A"></path>
                <path d="M19.8,13.1 C19.7,13.5 19.7,13.9 19.5,14.3 C19.4,14.6 19,14.8 18.7,14.7 C18.4,14.6 18.1,14.4 18.2,14 C18.2,13.6 18.3,13.2 18.4,12.8 C18.5,12.5 18.9,12.3 19.2,12.3 C19.6,12.4 19.8,12.8 19.8,13.1 Z" id="Shape" fill="#1A72B8"></path>
                <path d="M118.4,32.9 C118.4,32.8 118.4,32.7 118.5,32.6 C118.6,32.4 118.6,32.3 118.7,32.1 C118.8,31.8 119.1,31.6 119.4,31.6 C119.7,31.6 120,31.8 120.1,32.1 C120.2,32.3 120.2,32.4 120.1,32.6 C120,32.8 119.9,33.1 119.8,33.3 C119.7,33.6 119.4,33.8 119,33.8 C118.7,33.8 118.4,33.6 118.3,33.2 C118.4,33.1 118.4,33 118.4,32.9 Z" id="Shape" fill="#2356A3"></path>
                <path d="M121.2,23.6 C121.2,23.7 121.2,23.7 121.2,23.8 C121.2,24.3 120.9,24.5 120.6,24.5 C120.2,24.5 119.9,24.3 119.9,23.9 C119.9,23.7 119.9,23.6 119.9,23.4 C119.9,23.2 119.9,23.1 119.9,22.9 C119.9,22.5 120.2,22.2 120.5,22.2 C120.9,22.2 121.2,22.4 121.3,22.8 C121.1,23.1 121.2,23.3 121.2,23.6 Z" id="Shape" fill="#215AA6"></path>
                <path d="M2.1,28.2 C2.1,28.6 1.8,28.9 1.5,29 C1.1,29 0.8,28.8 0.8,28.4 C0.8,28.1 0.7,27.8 0.7,27.5 C0.7,27.1 0.9,26.8 1.3,26.7 C1.7,26.6 2,26.9 2.1,27.3 C2.1,27.5 2.1,27.9 2.1,28.2 Z" id="Shape" fill="#1576BB"></path>
                <path d="M113.5,34.7 C113.4,35 113.4,35.3 113.3,35.7 C113.2,36 112.9,36.2 112.5,36.2 C112.2,36.1 111.9,35.8 111.9,35.5 C111.9,35.1 112,34.7 112.2,34.4 C112.3,34.1 112.7,33.9 113,34 C113.3,34 113.5,34.3 113.5,34.7 Z" id="Shape" fill="#294598"></path>
                <path d="M118.8,18.5 C118.8,18.1 119,17.9 119.3,17.8 C119.6,17.7 119.9,17.8 120.1,18.1 C120.3,18.5 120.4,18.8 120.5,19.2 C120.6,19.5 120.4,19.8 120.1,19.9 C119.8,20 119.5,19.9 119.3,19.6 C119,19.3 118.9,18.8 118.8,18.5 Z" id="Shape" fill="#215AA6"></path>
                <path d="M9.3,14.5 C9.3,14.6 9.3,14.6 9.3,14.7 C9.2,15 9.2,15.2 9.1,15.5 C9,15.9 8.7,16.1 8.3,16 C8,15.9 7.8,15.6 7.8,15.2 C7.9,14.9 7.9,14.6 8,14.3 C8.1,14 8.4,13.8 8.7,13.9 C9.1,13.8 9.3,14.1 9.3,14.5 Z" id="Shape" fill="#1A72B8"></path>
                <path d="M2.5,33.4 C2.3,33.4 2,33.3 1.9,33 C1.8,32.7 1.7,32.4 1.6,32 C1.5,31.7 1.7,31.3 2,31.2 C2.3,31.1 2.7,31.2 2.8,31.5 C2.9,31.8 3.1,32.2 3.1,32.5 C3.3,33 3,33.4 2.5,33.4 Z" id="Shape" fill="#1576BB"></path>
                <path d="M102.6,34.8 C102.6,35.1 102.5,35.4 102.5,35.7 C102.4,36.1 102.1,36.3 101.8,36.2 C101.4,36.1 101.2,35.8 101.2,35.5 C101.2,35.2 101.3,34.9 101.3,34.6 C101.4,34.2 101.6,34 102,34 C102.4,34 102.6,34.3 102.6,34.8 Z" id="Shape" fill="#294297"></path>
                <path d="M29.7,22.8 C29.7,22.6 29.7,22.5 29.7,22.3 C29.7,21.9 30,21.6 30.4,21.7 C30.8,21.7 31,22 31,22.4 C31,22.7 30.9,23 30.9,23.4 C30.8,23.8 30.6,24 30.2,24 C29.9,24 29.6,23.7 29.6,23.4 C29.6,23.1 29.6,22.9 29.7,22.8 C29.7,22.8 29.7,22.8 29.7,22.8 Z" id="Shape" fill="#1E6FB6"></path>
                <path d="M117.5,13.6 C117.7,13.6 117.9,13.7 118,13.9 C118.2,14.2 118.4,14.5 118.5,14.8 C118.6,15.1 118.5,15.5 118.2,15.6 C117.9,15.8 117.6,15.7 117.4,15.4 C117.2,15.1 117,14.8 116.9,14.5 C116.8,14 117.1,13.6 117.5,13.6 Z" id="Shape" fill="#2362AC"></path>
                <path d="M90.4,26.4 C90.4,26.6 90.4,26.8 90.4,27 C90.4,27.4 90.1,27.6 89.7,27.6 C89.3,27.6 89.1,27.3 89.1,26.9 C89.1,26.6 89.2,26.3 89.2,26 C89.2,25.7 89.5,25.4 89.8,25.5 C90.1,25.5 90.4,25.8 90.4,26.1 C90.4,26.2 90.4,26.3 90.4,26.4 Z" id="Shape" fill="#29499A"></path>
                <path d="M19,17.7 C19,18.1 18.9,18.4 18.9,18.7 C18.8,19.1 18.6,19.3 18.2,19.2 C17.9,19.2 17.6,18.9 17.7,18.5 C17.7,18.2 17.7,17.9 17.8,17.7 C17.8,17.3 18.1,17 18.5,17.1 C18.8,17.1 19.1,17.4 19,17.7 Z" id="Shape" fill="#1A72B8"></path>
                <path d="M4.1,35.5 C4.3,35.5 4.5,35.6 4.6,35.8 C4.8,36.1 4.9,36.4 5.1,36.7 C5.3,37 5.2,37.3 4.9,37.5 C4.6,37.7 4.3,37.6 4.1,37.3 C3.9,37 3.7,36.7 3.6,36.5 C3.3,36 3.6,35.5 4.1,35.5 Z" id="Shape" fill="#1576BB"></path>
                <path d="M116,11.2 C116,11.4 115.9,11.6 115.7,11.7 C115.5,11.8 115.3,11.8 115.1,11.6 C114.8,11.3 114.6,11 114.3,10.7 C114.1,10.5 114.2,10.2 114.4,10 C114.6,9.8 114.9,9.8 115.1,10 C115.4,10.3 115.6,10.6 115.9,10.9 C116,11 116,11.1 116,11.2 Z" id="Shape" fill="#2362AC"></path>
                <path d="M6.8,39.3 C6.9,39.3 7,39.3 7.2,39.5 C7.4,39.7 7.6,40 7.8,40.2 C8,40.5 8,40.8 7.8,41 C7.6,41.2 7.2,41.2 7,41 C6.8,40.8 6.6,40.5 6.3,40.3 C6.1,40.1 6.1,39.9 6.2,39.7 C6.3,39.4 6.5,39.3 6.8,39.3 Z" id="Shape" fill="#1A72B8"></path>
                <path d="M114.1,30.3 C114.1,30.5 114.1,30.8 114,31 C114,31.4 113.7,31.6 113.4,31.6 C113.1,31.6 112.8,31.3 112.9,30.9 C112.9,30.6 113,30.3 113,30.1 C113.1,29.7 113.3,29.6 113.6,29.6 C113.9,29.6 114.1,29.9 114,30.3 C114.1,30.2 114.1,30.2 114.1,30.3 C114.1,30.3 114.1,30.3 114.1,30.3 Z" id="Shape" fill="#294598"></path>
                <path d="M102.9,30.4 C102.9,30.6 102.9,30.8 102.9,31 C102.9,31.3 102.6,31.5 102.3,31.5 C102,31.5 101.8,31.2 101.8,30.9 C101.8,30.6 101.8,30.2 101.9,29.9 C101.9,29.6 102.2,29.4 102.5,29.4 C102.8,29.4 103,29.7 103,30 C102.9,30.2 102.9,30.3 102.9,30.4 C102.9,30.4 102.9,30.4 102.9,30.4 Z" id="Shape" fill="#294598"></path>
                <path d="M77.3,20.7 C77.3,20.8 77.3,20.9 77.3,21.1 C77.3,21.4 77.1,21.7 76.7,21.7 C76.4,21.7 76.1,21.5 76.1,21.2 C76.1,20.9 76.1,20.5 76.1,20.2 C76.1,19.9 76.4,19.7 76.6,19.7 C76.9,19.7 77.1,19.9 77.1,20.2 C77.3,20.3 77.3,20.5 77.3,20.7 Z" id="Shape" fill="#2551A0"></path>
                <path d="M43.4,29.2 C43.4,29.1 43.4,28.9 43.4,28.8 C43.4,28.4 43.6,28.2 44,28.2 C44.3,28.2 44.6,28.5 44.6,28.8 C44.6,29.1 44.6,29.4 44.6,29.7 C44.6,30 44.4,30.2 44,30.2 C43.7,30.2 43.5,30 43.5,29.7 C43.4,29.5 43.4,29.4 43.4,29.2 C43.4,29.2 43.4,29.2 43.4,29.2 Z" id="Shape" fill="#2551A0"></path>
                <path d="M111.4,6.9 C111.5,6.9 111.5,6.9 111.6,7 C111.9,7.2 112.2,7.4 112.5,7.7 C112.7,7.8 112.7,8 112.6,8.2 C112.5,8.4 112.4,8.5 112.2,8.6 C112.1,8.6 111.9,8.6 111.8,8.5 C111.5,8.3 111.2,8.1 111,7.8 C110.8,7.6 110.8,7.4 110.9,7.2 C111,7 111.2,6.9 111.4,6.9 Z" id="Shape" fill="#2362AC"></path>
                <path d="M7.1,19.9 C7.1,19.5 7.2,19.2 7.2,18.9 C7.3,18.6 7.5,18.3 7.8,18.4 C8.1,18.5 8.3,18.7 8.3,19.1 C8.3,19.4 8.2,19.6 8.2,19.9 C8.1,20.3 7.9,20.5 7.6,20.4 C7.3,20.4 7,20.2 7.1,19.9 Z" id="Shape" fill="#1A72B8"></path>
                <path d="M10.1,42.4 C10.2,42.4 10.3,42.4 10.4,42.5 C10.7,42.7 11,42.9 11.3,43.2 C11.5,43.4 11.5,43.7 11.4,43.9 C11.2,44.1 10.9,44.2 10.7,44.1 C10.4,43.9 10.1,43.7 9.9,43.5 C9.6,43.3 9.7,42.9 9.9,42.7 C9.9,42.5 10,42.4 10.1,42.4 Z" id="Shape" fill="#1E6FB6"></path>
                <path d="M30.7,27.4 C30.7,27.6 30.7,27.7 30.7,27.9 C30.7,28.2 30.5,28.4 30.2,28.4 C29.9,28.4 29.7,28.2 29.7,27.9 C29.7,27.6 29.7,27.3 29.7,27 C29.7,26.7 29.9,26.5 30.2,26.4 C30.5,26.4 30.8,26.6 30.8,26.9 C30.7,27.1 30.7,27.2 30.7,27.4 C30.7,27.4 30.7,27.4 30.7,27.4 Z" id="Shape" fill="#1E6FB6"></path>
                <path d="M18.6,22.7 C18.6,22.9 18.6,23 18.6,23.2 C18.6,23.5 18.4,23.7 18.1,23.7 C17.8,23.7 17.6,23.5 17.6,23.2 C17.6,22.9 17.6,22.6 17.6,22.3 C17.6,22 17.8,21.7 18.1,21.8 C18.4,21.8 18.6,22 18.6,22.4 C18.6,22.5 18.6,22.6 18.6,22.7 C18.6,22.7 18.6,22.7 18.6,22.7 Z" id="Shape" fill="#1E6FB6"></path>
                <path d="M107.5,4.5 C107.5,4.5 107.6,4.5 107.6,4.5 C107.9,4.7 108.3,4.8 108.6,5 C108.8,5.1 108.8,5.3 108.8,5.5 C108.8,5.7 108.6,5.8 108.4,5.9 C108.3,5.9 108.2,5.9 108.1,5.9 C107.8,5.8 107.4,5.6 107.1,5.4 C106.9,5.3 106.9,5 106.9,4.8 C107.1,4.6 107.3,4.5 107.5,4.5 Z" id="Shape" fill="#2362AC"></path>
                <path d="M15.3,45.9 C15.3,46.2 15,46.5 14.7,46.4 C14.4,46.3 14.1,46.1 13.7,45.9 C13.5,45.8 13.4,45.5 13.5,45.3 C13.6,45.1 13.9,44.9 14.1,45 C14.4,45.1 14.8,45.3 15.1,45.5 C15.2,45.6 15.3,45.7 15.3,45.9 Z" id="Shape" fill="#216BB3"></path>
                <path d="M89.4,21.9 C89.4,21.7 89.4,21.6 89.4,21.4 C89.4,21.1 89.6,20.9 89.9,20.9 C90.2,20.9 90.4,21.1 90.4,21.4 C90.4,21.7 90.4,22 90.4,22.3 C90.4,22.5 90.2,22.7 90,22.8 C89.8,22.8 89.6,22.8 89.5,22.6 C89.4,22.5 89.4,22.4 89.4,22.3 C89.4,22.2 89.4,22 89.4,21.9 C89.4,21.9 89.4,21.9 89.4,21.9 Z" id="Shape" fill="#284D9D"></path>
                <path d="M103.4,2.8 C103.7,2.9 104.1,3 104.4,3.2 C104.6,3.3 104.7,3.5 104.6,3.8 C104.5,4 104.3,4.1 104.1,4.1 C104.1,4.1 104,4.1 104,4.1 C103.7,4 103.4,3.9 103.1,3.8 C102.9,3.7 102.8,3.5 102.8,3.3 C102.9,2.9 103.1,2.8 103.4,2.8 Z" id="Shape" fill="#2667AF"></path>
                <path d="M103,25.9 C103,26.1 103,26.2 103,26.4 C103,26.7 102.8,26.9 102.5,26.9 C102.2,26.9 102.1,26.7 102.1,26.4 C102.1,26.1 102.1,25.8 102.1,25.5 C102.1,25.2 102.3,25 102.6,25 C102.9,25 103,25.2 103.1,25.4 C103,25.6 103,25.7 103,25.9 C103,25.9 103,25.9 103,25.9 Z" id="Shape" fill="#29499A"></path>
                <path d="M19.5,47.5 C19.5,47.8 19.3,48.1 19,48 C18.7,47.9 18.3,47.8 18,47.7 C17.8,47.6 17.7,47.4 17.8,47.2 C17.9,47 18,46.9 18.2,46.9 C18.3,46.9 18.3,46.9 18.4,46.9 C18.7,47 18.9,47.1 19.2,47.2 C19.4,47.2 19.5,47.3 19.5,47.5 Z" id="Shape" fill="#2667AF"></path>
                <path d="M7.8,24.1 C7.8,24.3 7.8,24.4 7.8,24.6 C7.8,24.9 7.6,25 7.4,25 C7.2,25 7,24.8 7,24.6 C7,24.3 7,24 7,23.7 C7,23.4 7.2,23.2 7.4,23.2 C7.7,23.2 7.8,23.4 7.8,23.7 C7.8,23.8 7.8,23.9 7.8,24.1 C7.8,24.1 7.8,24.1 7.8,24.1 Z" id="Shape" fill="#1E6FB6"></path>
                <path d="M98.9,1.7 C99.2,1.7 99.5,1.8 99.9,1.9 C100.1,2 100.3,2.2 100.2,2.4 C100.2,2.6 100,2.8 99.7,2.7 C99.4,2.7 99.1,2.6 98.7,2.5 C98.5,2.4 98.4,2.2 98.4,2 C98.5,1.8 98.6,1.7 98.9,1.7 Z" id="Shape" fill="#2667AF"></path>
                <path d="M114.3,25.9 C114.3,26 114.3,26.2 114.3,26.3 C114.3,26.6 114.1,26.8 113.8,26.7 C113.6,26.7 113.4,26.5 113.4,26.2 C113.4,25.9 113.4,25.6 113.4,25.3 C113.4,25 113.6,24.9 113.8,24.9 C114,24.9 114.2,25.1 114.2,25.3 C114.3,25.6 114.3,25.7 114.3,25.9 C114.3,25.9 114.3,25.9 114.3,25.9 Z" id="Shape" fill="#29499A"></path>
                <path d="M23.4,49 C23.1,49 22.8,48.9 22.5,48.8 C22.3,48.7 22.2,48.5 22.2,48.3 C22.2,48.1 22.4,47.9 22.6,48 C22.9,48 23.3,48.1 23.6,48.2 C23.8,48.2 23.9,48.5 23.9,48.7 C23.9,48.9 23.7,49 23.4,49 Z" id="Shape" fill="#2667AF"></path>
                <path d="M18.7,27.4 C18.7,27.5 18.7,27.7 18.7,27.8 C18.7,28.1 18.6,28.2 18.3,28.3 C18.1,28.3 17.9,28.2 17.9,27.9 C17.9,27.6 17.8,27.3 17.8,27 C17.8,26.7 17.9,26.5 18.2,26.5 C18.4,26.5 18.6,26.7 18.7,26.9 C18.7,27.1 18.7,27.2 18.7,27.4 C18.7,27.4 18.7,27.4 18.7,27.4 Z" id="Shape" fill="#216BB3"></path>
                <path d="M30.9,32.1 C30.9,32.2 30.9,32.3 30.9,32.4 C30.9,32.6 30.8,32.8 30.6,32.8 C30.4,32.8 30.2,32.7 30.2,32.5 C30.1,32.2 30.1,31.9 30.1,31.5 C30.1,31.3 30.3,31.1 30.5,31.1 C30.7,31.1 30.9,31.2 30.9,31.5 C30.9,31.7 30.9,31.9 30.9,32.1 C30.9,32.1 30.9,32.1 30.9,32.1 Z" id="Shape" fill="#1E6FB6"></path>
                <path d="M94.6,1.2 C94.8,1.2 95,1.2 95.2,1.2 C95.4,1.2 95.6,1.4 95.6,1.6 C95.6,1.8 95.4,2 95.2,2 C94.9,2 94.6,2 94.3,1.9 C94.1,1.9 93.9,1.7 93.9,1.5 C93.9,1.3 94.1,1.2 94.3,1.2 C94.4,1.2 94.5,1.2 94.6,1.2 Z" id="Shape" fill="#2667AF"></path>
                <path d="M27.6,49.4 C27.4,49.4 27.3,49.4 27.1,49.4 C26.9,49.4 26.7,49.2 26.7,49 C26.7,48.8 26.9,48.6 27.1,48.6 C27.4,48.6 27.7,48.6 28,48.6 C28.2,48.6 28.4,48.8 28.4,49 C28.4,49.2 28.2,49.4 28,49.4 C27.9,49.4 27.8,49.4 27.6,49.4 C27.6,49.4 27.6,49.4 27.6,49.4 Z" id="Shape" fill="#2362AC"></path>
                <path d="M44.4,33.9 C44.4,34 44.4,34.2 44.4,34.3 C44.4,34.5 44.3,34.7 44.1,34.7 C43.9,34.7 43.8,34.6 43.7,34.4 C43.7,34.1 43.6,33.8 43.6,33.5 C43.6,33.2 43.8,33.1 44,33.1 C44.2,33.1 44.4,33.3 44.4,33.5 C44.4,33.6 44.4,33.7 44.4,33.9 C44.4,33.9 44.4,33.9 44.4,33.9 Z" id="Shape" fill="#215AA6"></path>
                <path d="M89.4,17.2 C89.4,17.1 89.4,16.9 89.4,16.8 C89.4,16.6 89.5,16.4 89.7,16.4 C89.9,16.4 90.1,16.5 90.1,16.7 C90.1,17 90.2,17.3 90.2,17.6 C90.2,17.8 90.1,18 89.8,18 C89.6,18 89.4,17.9 89.4,17.6 C89.4,17.6 89.4,17.4 89.4,17.2 C89.4,17.2 89.4,17.2 89.4,17.2 Z" id="Shape" fill="#2551A0"></path>
                <path d="M102.9,21.6 C102.9,21.6 102.9,21.7 102.9,21.7 C102.9,21.9 102.7,22.1 102.5,22.1 C102.3,22.1 102.1,22 102.1,21.7 C102.1,21.4 102.1,21.1 102.1,20.8 C102.1,20.6 102.2,20.4 102.4,20.4 C102.6,20.4 102.8,20.5 102.8,20.8 C102.9,21.1 102.9,21.3 102.9,21.6 C102.9,21.6 102.9,21.6 102.9,21.6 Z" id="Shape" fill="#284D9D"></path>
                <path d="M76.2,16 C76.2,15.9 76.2,15.7 76.2,15.6 C76.2,15.4 76.3,15.3 76.5,15.3 C76.7,15.3 76.8,15.4 76.9,15.6 C76.9,15.9 77,16.3 77,16.6 C77,16.8 76.9,17 76.7,17 C76.5,17 76.3,16.9 76.3,16.6 C76.2,16.3 76.2,16.2 76.2,16 C76.2,16 76.2,16 76.2,16 Z" id="Shape" fill="#215AA6"></path>
                <path d="M90.1,1.9 C90,1.9 89.8,1.9 89.7,1.9 C89.5,1.9 89.4,1.8 89.4,1.6 C89.4,1.4 89.5,1.3 89.7,1.2 C90.1,1.1 90.4,1.1 90.8,1.2 C91,1.2 91.1,1.4 91.1,1.5 C91.1,1.7 91,1.8 90.8,1.9 C90.5,2 90.3,1.9 90.1,1.9 Z" id="Shape" fill="#216BB3"></path>
                <path d="M32.2,48.6 C32.3,48.6 32.5,48.6 32.6,48.6 C32.8,48.6 32.9,48.7 33,48.9 C33,49.1 32.9,49.2 32.7,49.3 C32.4,49.3 32.1,49.4 31.8,49.4 C31.6,49.4 31.4,49.3 31.4,49.1 C31.4,48.9 31.5,48.8 31.7,48.7 C31.7,48.7 31.7,48.7 31.8,48.7 C31.9,48.6 32.1,48.6 32.2,48.6 C32.2,48.6 32.2,48.6 32.2,48.6 Z" id="Shape" fill="#215AA6"></path>
                <path d="M7.3,28.3 C7.3,28.1 7.4,27.9 7.6,27.9 C7.8,27.9 7.9,28 8,28.2 C8,28.5 8.1,28.8 8.1,29.1 C8.1,29.3 8,29.4 7.8,29.5 C7.6,29.5 7.5,29.4 7.4,29.2 C7.4,28.9 7.3,28.5 7.3,28.3 Z" id="Shape" fill="#2667AF"></path>
                <path d="M85.2,2.3 C85,2.3 84.8,2.2 84.8,2 C84.8,1.8 84.9,1.7 85.1,1.7 C85.4,1.6 85.7,1.6 86,1.6 C86.2,1.6 86.3,1.7 86.3,1.9 C86.3,2.1 86.2,2.2 86,2.3 C85.8,2.3 85.5,2.3 85.2,2.3 Z" id="Shape" fill="#216BB3"></path>
                <path d="M19.1,32.3 C19.1,32.6 19,32.7 18.8,32.7 C18.6,32.7 18.5,32.6 18.5,32.4 C18.4,32.1 18.4,31.8 18.4,31.5 C18.4,31.3 18.5,31.1 18.7,31.1 C18.9,31.1 19,31.2 19.1,31.4 C19,31.8 19.1,32.1 19.1,32.3 Z" id="Shape" fill="#2667AF"></path>
                <path d="M36.3,48.8 C36.1,48.8 36,48.7 36,48.6 C36,48.4 36,48.3 36.2,48.2 C36.5,48.1 36.8,48.1 37.1,48 C37.3,48 37.4,48.1 37.4,48.2 C37.4,48.4 37.4,48.5 37.2,48.6 C37.1,48.6 37.1,48.6 37,48.6 C36.8,48.6 36.6,48.7 36.3,48.8 Z" id="Shape" fill="#2356A3"></path>
                <path d="M113.4,21.2 C113.4,21.1 113.4,21 113.4,20.8 C113.4,20.6 113.5,20.5 113.7,20.5 C113.9,20.5 114,20.6 114,20.7 C114,21 114.1,21.3 114.1,21.6 C114.1,21.8 114,21.9 113.8,21.9 C113.6,21.9 113.5,21.8 113.5,21.6 C113.4,21.6 113.4,21.4 113.4,21.2 C113.4,21.2 113.4,21.2 113.4,21.2 Z" id="Shape" fill="#2551A0"></path>
                <path d="M101.9,16.4 C101.9,16.3 101.9,16.2 101.9,16.1 C101.9,15.9 102,15.9 102.1,15.8 C102.2,15.8 102.4,15.9 102.4,16 C102.4,16.1 102.4,16.2 102.4,16.3 C102.4,16.5 102.4,16.7 102.5,16.9 C102.5,17.1 102.4,17.2 102.2,17.2 C102,17.2 101.9,17.1 101.9,16.9 C102,16.9 101.9,16.7 101.9,16.4 C101.9,16.4 101.9,16.4 101.9,16.4 Z" id="Shape" fill="#2356A3"></path>
                <path d="M31.5,37 C31.5,37.2 31.4,37.3 31.3,37.3 C31.2,37.3 31,37.3 31,37.1 C30.9,36.8 30.9,36.5 30.8,36.2 C30.8,36 30.9,35.9 31,35.9 C31.2,35.9 31.3,35.9 31.3,36.1 C31.4,36.4 31.4,36.7 31.5,37 Z" id="Shape" fill="#2667AF"></path>
                <path d="M80.7,3.2 C80.6,3.2 80.5,3.1 80.4,3 C80.4,2.9 80.4,2.8 80.5,2.7 C80.5,2.7 80.6,2.7 80.6,2.7 C80.9,2.6 81.1,2.5 81.4,2.5 C81.6,2.5 81.7,2.5 81.8,2.7 C81.8,2.9 81.8,3 81.6,3 C81.3,3.1 81.1,3.1 80.8,3.2 C80.7,3.2 80.7,3.2 80.7,3.2 Z" id="Shape" fill="#216BB3"></path>
                <path d="M40.8,47.5 C40.6,47.5 40.5,47.4 40.5,47.3 C40.5,47.2 40.5,47 40.6,47 C40.8,46.9 41,46.9 41.2,46.8 C41.3,46.8 41.5,46.7 41.6,46.7 C41.7,46.7 41.8,46.7 41.9,46.9 C41.9,47 41.9,47.2 41.8,47.2 C41.4,47.3 41.1,47.4 40.8,47.5 Z" id="Shape" fill="#2551A0"></path>
                <path d="M89,12.3 C89,12.2 89,12.2 89,12.3 C89,12.1 89.1,12 89.2,12 C89.3,12 89.4,12 89.4,12.2 C89.5,12.5 89.5,12.9 89.6,13.2 C89.6,13.3 89.5,13.4 89.4,13.5 C89.3,13.5 89.1,13.4 89.1,13.2 C89.1,12.8 89.1,12.6 89,12.3 Z" id="Shape" fill="#2362AC"></path>
                <path d="M76.4,4.8 C76.3,4.8 76.2,4.7 76.2,4.6 C76.2,4.5 76.2,4.4 76.2,4.4 C76.2,4.4 76.3,4.3 76.3,4.3 C76.6,4.2 76.8,4.1 77.1,3.9 C77.1,3.9 77.2,3.9 77.2,3.9 C77.3,3.9 77.4,3.9 77.5,4 C77.6,4.1 77.5,4.2 77.4,4.3 C77,4.5 76.7,4.7 76.4,4.8 C76.4,4.8 76.4,4.8 76.4,4.8 Z" id="Shape" fill="#1E6FB6"></path>
                <path d="M45.9,45 C45.9,45.1 45.8,45.2 45.8,45.2 C45.5,45.3 45.3,45.5 45,45.6 C44.9,45.7 44.7,45.6 44.7,45.5 C44.6,45.4 44.7,45.3 44.8,45.2 C45.1,45.1 45.3,44.9 45.6,44.8 C45.8,44.7 45.9,44.8 45.9,45 Z" id="Shape" fill="#284D9D"></path>
                <path d="M19.8,37 C19.8,37.1 19.8,37.2 19.6,37.2 C19.5,37.2 19.4,37.2 19.4,37.1 C19.3,36.8 19.3,36.5 19.2,36.2 C19.2,36.1 19.3,36 19.4,35.9 C19.5,35.9 19.6,36 19.6,36.1 C19.7,36.3 19.8,36.6 19.8,37 Z" id="Shape" fill="#2362AC"></path>
                <path d="M8.8,33.6 C8.8,33.7 8.8,33.8 8.7,33.9 C8.6,33.9 8.5,33.9 8.5,33.8 C8.4,33.5 8.3,33.2 8.3,32.9 C8.3,32.8 8.3,32.7 8.5,32.7 C8.6,32.7 8.7,32.7 8.8,32.8 C8.7,33 8.7,33.3 8.8,33.6 Z" id="Shape" fill="#2667AF"></path>
                <path d="M76,11.3 C76,11.2 76,11.1 76,10.9 C76,10.8 76,10.7 76.2,10.7 C76.3,10.7 76.4,10.8 76.4,10.9 C76.4,11.2 76.5,11.5 76.5,11.7 C76.5,11.9 76.4,12 76.3,12 C76.2,12 76.1,11.9 76.1,11.8 C76,11.7 76,11.5 76,11.3 C76,11.3 76,11.3 76,11.3 Z" id="Shape" fill="#2667AF"></path>
                <path d="M73.4,6.4 C73.4,6.5 73.4,6.5 73.3,6.6 C73.1,6.8 72.8,6.9 72.6,7.1 C72.5,7.2 72.4,7.2 72.3,7.1 C72.2,7 72.2,6.9 72.4,6.8 C72.6,6.6 72.9,6.4 73.1,6.3 C73.2,6.1 73.4,6.2 73.4,6.4 Z" id="Shape" fill="#1E6FB6"></path>
                <path d="M44.7,38.7 C44.7,38.8 44.7,38.8 44.7,38.9 C44.7,39 44.7,39.1 44.6,39.1 C44.5,39.1 44.4,39.1 44.4,39 C44.4,38.9 44.3,38.7 44.3,38.6 C44.3,38.4 44.2,38.3 44.2,38.1 C44.2,38 44.3,37.9 44.4,37.8 C44.5,37.8 44.6,37.9 44.6,38 C44.6,38.3 44.7,38.5 44.7,38.7 C44.7,38.7 44.7,38.7 44.7,38.7 Z" id="Shape" fill="#2667AF"></path>
                <path d="M102,12.4 C102,12.6 101.9,12.7 101.8,12.7 C101.7,12.7 101.6,12.6 101.6,12.5 C101.6,12.2 101.5,11.9 101.5,11.6 C101.5,11.5 101.5,11.4 101.6,11.4 C101.7,11.4 101.8,11.4 101.8,11.6 C101.9,11.9 101.9,12.2 102,12.4 Z" id="Shape" fill="#2667AF"></path>
                <path d="M48.8,43.2 C48.7,43.2 48.6,43.2 48.6,43.1 C48.6,43 48.6,43 48.6,42.9 C48.6,42.9 48.7,42.8 48.7,42.8 C48.9,42.6 49.1,42.5 49.4,42.3 C49.5,42.2 49.6,42.2 49.7,42.3 C49.8,42.4 49.8,42.5 49.7,42.6 C49.4,42.7 49.1,42.9 48.8,43.2 C48.9,43.1 48.8,43.2 48.8,43.2 Z" id="Shape" fill="#284D9D"></path>
                <path d="M112.8,16.3 C112.8,16.2 112.8,16.1 112.9,16.1 C113,16.1 113.1,16.1 113.1,16.2 C113.2,16.5 113.2,16.8 113.3,17 C113.3,17.1 113.3,17.2 113.2,17.3 C113.1,17.3 113,17.3 113,17.1 C112.9,16.9 112.8,16.6 112.8,16.3 Z" id="Shape" fill="#2667AF"></path>
                <path d="M32.3,41.5 C32.3,41.6 32.3,41.7 32.2,41.7 C32.1,41.7 32.1,41.7 32,41.6 C31.9,41.3 31.8,41 31.8,40.7 C31.8,40.6 31.8,40.5 31.9,40.5 C32,40.5 32.1,40.5 32.1,40.6 C32.2,40.9 32.3,41.2 32.3,41.5 Z" id="Shape" fill="#2667AF"></path>
                <path d="M69.6,9.1 C69.7,9.1 69.8,9.2 69.8,9.3 C69.8,9.3 69.7,9.4 69.7,9.4 C69.5,9.6 69.4,9.8 69.2,9.9 C69.2,9.9 69.1,10 69.1,10 C69,10 69,10 68.9,10 C68.8,9.9 68.8,9.9 68.9,9.8 C69.1,9.6 69.3,9.4 69.6,9.1 C69.6,9.2 69.6,9.2 69.6,9.1 Z" id="Shape" fill="#1E6FB6"></path>
                <path d="M52.2,40.1 C52.1,40.1 52,40 52.1,39.9 C52.1,39.8 52.2,39.8 52.3,39.7 C52.5,39.5 52.6,39.4 52.8,39.2 C52.9,39.1 52.9,39.1 53,39.2 C53.1,39.3 53.1,39.4 53,39.4 C52.8,39.6 52.6,39.8 52.4,40.1 C52.3,40.1 52.3,40.1 52.2,40.1 Z" id="Shape" fill="#284D9D"></path>
                <path d="M88.4,7.7 C88.4,7.6 88.4,7.5 88.5,7.5 C88.6,7.5 88.6,7.5 88.6,7.6 C88.7,7.9 88.7,8.2 88.8,8.4 C88.8,8.5 88.8,8.6 88.7,8.6 C88.6,8.6 88.6,8.6 88.5,8.5 C88.5,8.3 88.4,8 88.4,7.7 Z" id="Shape" fill="#2667AF"></path>
                <path d="M66.8,12.8 C66.8,12.9 66.8,12.9 66.8,12.8 C66.6,13.1 66.4,13.3 66.3,13.5 C66.3,13.6 66.2,13.6 66.1,13.6 C66,13.5 66.1,13.5 66.1,13.4 C66.3,13.2 66.4,12.9 66.6,12.7 C66.6,12.6 66.7,12.6 66.8,12.6 C66.8,12.7 66.8,12.8 66.8,12.8 Z" id="Shape" fill="#1A72B8"></path>
                <path d="M55.2,36.5 C55.1,36.5 55,36.4 55.1,36.3 C55.3,36 55.5,35.8 55.6,35.5 C55.6,35.5 55.7,35.4 55.7,35.5 C55.8,35.5 55.8,35.6 55.7,35.7 C55.5,35.9 55.4,36.2 55.2,36.4 C55.3,36.5 55.2,36.5 55.2,36.5 Z" id="Shape" fill="#284D9D"></path>
                <path d="M20.7,41.4 C20.7,41.5 20.7,41.5 20.6,41.6 C20.5,41.6 20.5,41.6 20.5,41.5 C20.4,41.2 20.3,40.9 20.3,40.7 C20.3,40.6 20.3,40.6 20.4,40.5 C20.5,40.5 20.5,40.5 20.5,40.6 C20.6,40.9 20.6,41.2 20.7,41.4 Z" id="Shape" fill="#2362AC"></path>
                <path d="M101.2,7.8 C101.2,7.9 101.2,8 101.1,8 C101,8 101,8 101,7.9 C100.9,7.6 100.9,7.3 100.9,7 C100.9,6.9 100.9,6.9 101,6.9 C101.1,6.9 101.1,6.9 101.1,7 C101.1,7.3 101.1,7.6 101.2,7.8 Z" id="Shape" fill="#2667AF"></path>
                <path d="M9.6,37.1 C9.7,37.1 9.7,37.1 9.7,37.2 C9.8,37.5 9.9,37.8 9.9,38 C9.9,38 9.9,38.1 9.8,38.1 C9.7,38.1 9.7,38.1 9.7,38 C9.6,37.7 9.5,37.4 9.4,37.1 C9.5,37.2 9.5,37.1 9.6,37.1 Z" id="Shape" fill="#2667AF"></path>
                <path d="M64.3,16.8 C64.3,16.8 64.3,16.8 64.3,16.8 C64.1,17.1 64,17.3 63.9,17.6 C63.9,17.7 63.8,17.7 63.8,17.7 C63.7,17.7 63.8,17.6 63.8,17.5 C63.9,17.3 64,17 64.1,16.8 C64.1,16.8 64.1,16.7 64.2,16.7 C64.2,16.7 64.3,16.7 64.3,16.8 C64.3,16.7 64.3,16.7 64.3,16.8 Z" id="Shape" fill="#1A72B8"></path>
                <path d="M58.2,31.7 C58.2,31.7 58.2,31.8 58.2,31.7 C58.1,32 57.9,32.3 57.8,32.5 C57.8,32.5 57.7,32.6 57.7,32.5 C57.7,32.5 57.6,32.4 57.7,32.4 C57.8,32.1 58,31.9 58.1,31.6 C58.1,31.7 58.1,31.6 58.2,31.7 C58.2,31.7 58.2,31.7 58.2,31.7 Z" id="Shape" fill="#284D9D"></path>
                <path d="M62,21.8 C62,21.6 62.2,21.1 62.3,20.9 C62.4,21.1 62.2,21.6 62,21.8 Z" id="Shape" fill="#1A72B8"></path>
                <path d="M112,11.7 C112.1,12 112.1,12.3 112.2,12.5 C112.2,12.5 112.2,12.6 112.2,12.6 C112.1,12.6 112.1,12.6 112.1,12.5 C112.1,12.3 112,12 112,11.7 C112,11.7 112,11.7 112,11.7 Z" id="Shape" fill="#1E6FB6"></path>
                <path d="M60.1,27.5 C60,27.9 59.9,28.1 59.7,28.4 C59.7,28.2 59.9,27.7 60.1,27.5 Z" id="Shape" fill="#2667AF"></path>
                <path d="M33.2,45.1 C33.3,45.4 33.4,45.7 33.5,46 C33.3,45.7 33.2,45.4 33.2,45.1 Z" id="Shape" fill="#2667AF"></path>
                <path d="M45.2,43.4 C45.2,43.1 45,42.9 45,42.6 C45.2,42.8 45.2,43.1 45.2,43.4 Z" id="Shape" fill="#1E6FB6"></path>
                <path d="M75.5,6.7 C75.5,6.8 75.6,7 75.6,7.3 C75.5,7.1 75.5,6.9 75.5,6.7 Z" id="Shape" fill="#1E6FB6"></path>
            </g>
        </g>
    </g>
</svg>